<svg width="40" height="40" viewBox="0 0 40 40" fill="none" xmlns="http://www.w3.org/2000/svg">
<path d="M22.6667 19.9297C21.9303 19.9297 21.3333 20.4892 21.3333 21.1797C21.3333 21.87 21.9303 22.3594 22.6667 22.3594C23.403 22.3594 24 21.7998 24 21.1797C24 20.5625 23.4 19.9297 22.6667 19.9297ZM17.3333 14.9297C16.597 14.9297 16 15.4892 16 16.1797C16 16.87 16.597 17.4297 17.2583 17.4297C17.9197 17.4297 18.5917 16.87 18.5917 16.1797C18.6667 15.5625 18.0667 14.9297 17.3333 14.9297ZM37.5417 6.5375L21.5417 0.286719C21.1333 0.128203 20.4417 0 20.0083 0C19.5583 0 18.875 0.128203 18.4667 0.286875L2.46667 6.53766C0.974167 7.11484 0 8.48438 0 9.92969C0 30.0938 15.7667 40 19.9917 40C24.3267 40 40 29.9844 40 10C40 8.48438 39.025 7.11484 37.5417 6.5375ZM30.6667 19.9297H29.6567C28.0492 19.9297 26.985 21.1625 26.985 22.4477C26.985 23.0619 27.2282 23.6883 27.7713 24.1977L28.486 24.8677C28.7464 25.1118 28.8767 25.4316 28.8767 25.7512C28.8767 26.4174 28.3046 26.9309 27.5433 26.9309C27.2022 26.9309 26.861 26.8089 26.6008 26.5647L25.8862 25.8947C25.3429 25.3854 24.6753 25.1575 24.0195 25.1575C22.6487 25.1575 21.3337 26.1552 21.3337 27.6622V28.6091C21.3337 29.3 20.7373 29.8591 20.0003 29.8591C19.2633 29.8591 18.667 29.3 18.667 28.6091V27.6622C18.667 26.1552 17.352 25.1575 15.9812 25.1575C15.326 25.1575 14.6587 25.3854 14.1153 25.8947L13.4007 26.5647C13.1403 26.8088 12.7991 26.9309 12.4582 26.9309C11.6966 26.9309 11.1248 26.3471 11.1248 25.7512C11.1248 25.4314 11.255 25.1116 11.5155 24.8677L12.2302 24.1977C12.7734 23.6884 13.0165 23.0625 13.0165 22.4477C13.0165 21.1625 11.9523 19.9297 10.3448 19.9297H9.33333C8.59633 19.9297 8 19.3706 8 18.6797C8 17.9888 8.59633 17.4297 9.33333 17.4297H10.3433C11.9508 17.4297 13.015 16.1969 13.015 14.9117C13.015 14.2975 12.7718 13.6711 12.2287 13.1617L11.5167 12.5625C11.25 12.3203 11.125 12 11.125 11.6797C11.125 11.0135 11.6971 10.5 12.4583 10.5C12.7995 10.5 13.1407 10.622 13.4008 10.8663L14.1167 11.4609C14.6583 11.9766 15.325 12.2031 15.9833 12.2031C17.3542 12.2031 18.6692 11.2055 18.6692 9.69766V8.67969C18.6692 7.98875 19.2655 7.42969 20.0025 7.42969C20.7395 7.42969 21.3358 7.98875 21.3358 8.67969V9.62656C21.3358 11.1336 22.6508 12.132 24.0217 12.132C24.6768 12.132 25.345 11.9041 25.8883 11.3948L26.603 10.7248C26.8634 10.4806 27.2046 10.3585 27.5455 10.3585C28.3071 10.3585 28.8788 10.9423 28.8788 11.5382C28.8788 11.858 28.7487 12.1778 28.4882 12.4218L27.7735 13.0919C27.2303 13.6012 26.9872 14.227 26.9872 14.8419C26.9872 16.127 28.0513 17.3598 29.6588 17.3598H30.6688C31.4058 17.3598 32.0022 17.9189 32.0022 18.6098C32.0022 19.3008 31.4 19.9297 30.6667 19.9297Z" fill="black"/>
</svg>
