<svg width="130" height="130" viewBox="0 0 130 130" fill="none" xmlns="http://www.w3.org/2000/svg">
<path d="M117.812 0H12.1875C5.45645 0 0 5.45645 0 12.1875V117.812C0 124.544 5.45645 130 12.1875 130H117.812C124.544 130 130 124.544 130 117.812V12.1875C130 5.45645 124.544 0 117.812 0ZM121.875 117.812C121.875 120.056 120.056 121.875 117.812 121.875H12.1875C9.94373 121.875 8.125 120.056 8.125 117.812V12.1875C8.125 9.94373 9.94373 8.125 12.1875 8.125H117.812C120.056 8.125 121.875 9.94373 121.875 12.1875V117.812Z" fill="#82DFDF"/>
<path d="M88.1969 70.2406C86.6123 68.6654 84.0534 68.6654 82.4688 70.2406L73.1251 79.5844L55.6969 62.1562C54.1123 60.581 51.5534 60.581 49.9688 62.1562L21.5313 90.5937C19.9607 92.1959 19.9858 94.7679 21.5879 96.3386C22.3332 97.0694 23.3313 97.4852 24.3751 97.5H105.625C107.869 97.5129 109.698 95.7049 109.711 93.4611C109.718 92.3695 109.284 91.3217 108.509 90.5531L88.1969 70.2406Z" fill="#82DFDF"/>
<path d="M77.1875 56.875C83.9185 56.875 89.375 51.4185 89.375 44.6875C89.375 37.9565 83.9185 32.5 77.1875 32.5C70.4565 32.5 65 37.9565 65 44.6875C65 51.4185 70.4565 56.875 77.1875 56.875Z" fill="#82DFDF"/>
</svg>
