<svg width="350" height="327" viewBox="0 0 350 327" fill="none" xmlns="http://www.w3.org/2000/svg">
<path d="M176.95 10.837H11.6338V119.713H176.95V10.837Z" fill="#F5F5F5"/>
<path d="M37.5275 36.8503C37.5275 36.8503 35.2351 35.5701 33.7465 37.1406C33.2255 37.6988 33.0915 39.5298 35.1309 39.8945C35.1309 39.8945 39.5446 39.6563 41.5542 39.2916C43.5638 38.9269 48.1338 36.9099 48.1338 36.9099L50.5081 31.6179C50.5081 31.6179 50.8133 29.117 51.1185 29.0575C51.4236 28.9979 52.354 31.6179 52.354 31.6179L57.4748 33.1065L58.0181 34.1411L53.8426 35.8381C53.8426 35.8381 54.4529 42.4177 53.9021 43.5713C53.3298 44.5301 52.6116 45.3939 51.7734 46.1317L52.0116 55.696C52.0116 55.696 52.9271 55.3313 52.9866 56.0011H50.5602C50.5602 56.0011 49.5852 50.0467 48.1859 49.6002L48.5506 47.1068L38.9566 46.2955C38.9566 46.2955 39.6265 48.5284 36.8874 50.3742C35.4378 51.3068 34.1166 52.4254 32.9575 53.7013V55.5248C32.9575 55.5248 33.7539 55.83 33.8135 56.4998H30.8884C30.8884 56.4998 31.2531 51.446 30.8884 50.5901C30.8884 50.5901 34.4759 46.9281 33.9921 42.4028C33.9921 42.4028 29.9134 41.3682 30.8884 37.4085C31.8634 33.4489 36.4334 33.3819 37.5275 36.8503Z" fill="#E0E0E0"/>
<path d="M38.1381 67.3368C38.1381 67.3368 36.7016 66.5478 35.7861 67.5229C35.6704 67.6827 35.6007 67.8712 35.5847 68.0679C35.5686 68.2645 35.6068 68.4618 35.695 68.6383C35.7833 68.8148 35.9182 68.9637 36.0852 69.0689C36.2522 69.174 36.4448 69.2314 36.642 69.2348C36.642 69.2348 39.3885 69.0785 40.6315 68.8552C42.0315 68.4625 43.3999 67.9649 44.7251 67.3666L46.2137 64.0768C46.2137 64.0768 46.3998 62.5286 46.5933 62.484C46.7869 62.4393 47.3376 64.0768 47.3376 64.0768L50.5232 64.9848L50.8656 65.61L48.2978 66.6744C48.2978 66.6744 48.6699 70.7606 48.2978 71.4825C47.94 72.0758 47.4932 72.6105 46.9729 73.0679L47.1218 79.0223C47.1218 79.0223 47.6875 78.7916 47.7247 79.2084H46.2361C46.2361 79.2084 45.6332 75.4869 44.7475 75.2338L44.9708 73.6857L39.0164 73.187C39.0164 73.187 39.4332 74.5937 37.7287 75.725C36.8228 76.2984 35.9947 76.9863 35.2651 77.7719V78.9032C35.2651 78.9032 35.7563 79.0967 35.801 79.5135H34.0147C34.0147 79.5135 34.238 76.3726 34.0147 75.8367C34.0147 75.8367 36.2476 73.5591 35.9424 70.768C35.9424 70.768 33.4043 70.1279 34.0147 67.6643C34.625 65.2006 37.4682 65.1783 38.1381 67.3368Z" fill="#E0E0E0"/>
<path d="M37.0967 92.643C37.0967 92.643 36.01 92.0476 35.3252 92.7844C35.2379 92.9049 35.1853 93.047 35.1733 93.1953C35.1613 93.3436 35.1903 93.4924 35.2571 93.6253C35.324 93.7583 35.4261 93.8703 35.5523 93.9491C35.6785 94.0278 35.824 94.0704 35.9728 94.0721C35.9728 94.0721 38.0345 93.953 38.95 93.7818C40.0012 93.4903 41.0288 93.1196 42.0239 92.6728L43.1404 90.1943C43.1404 90.1943 43.2818 89.0257 43.4232 88.996C43.5646 88.9662 43.9963 90.1943 43.9963 90.1943L46.4004 90.9163L46.6535 91.4L44.7183 92.1964C44.7183 92.1964 45.0011 95.2778 44.7183 95.8212C44.4502 96.2679 44.1137 96.6697 43.7209 97.0121L43.84 101.478C43.84 101.478 44.2643 101.307 44.2941 101.619H43.1999C43.1999 101.619 42.7385 98.8282 42.0835 98.6421L42.2547 97.4735L37.7889 97.1014C37.855 97.4819 37.7966 97.8736 37.6223 98.2182C37.4479 98.5629 37.167 98.8421 36.8213 99.0142C36.1395 99.4426 35.5165 99.958 34.968 100.547V101.336C34.968 101.336 35.3327 101.485 35.3625 101.798H33.9855C34.0721 100.877 34.0721 99.95 33.9855 99.0291C34.4723 98.5217 34.8544 97.9233 35.1098 97.2681C35.3652 96.613 35.489 95.9139 35.4741 95.2109C35.2208 95.1591 34.9806 95.0569 34.7676 94.9103C34.5546 94.7638 34.3733 94.5759 34.2344 94.3578C34.0955 94.1398 34.0019 93.896 33.9592 93.6411C33.9164 93.3861 33.9254 93.1252 33.9855 92.8738C34.447 91.0502 36.5831 91.0205 37.0967 92.643Z" fill="#E0E0E0"/>
<path d="M151.965 41.13C151.965 41.2342 134.779 41.3235 113.574 41.3235C92.3685 41.3235 75.1826 41.2342 75.1826 41.13C75.1826 41.0258 92.3685 40.9365 113.574 40.9365C134.779 40.9365 151.965 41.0481 151.965 41.13Z" fill="#E0E0E0"/>
<path d="M151.965 44.0923C151.965 44.1965 134.779 44.2858 113.574 44.2858C92.3685 44.2858 75.1826 44.1965 75.1826 44.0923C75.1826 43.9881 92.3685 43.8988 113.574 43.8988C134.779 43.8988 151.965 43.9806 151.965 44.0923Z" fill="#E0E0E0"/>
<path d="M151.965 47.0472C151.965 47.1588 134.779 47.2407 113.574 47.2407C92.3685 47.2407 75.1826 47.1588 75.1826 47.0472C75.1826 46.9355 92.3685 46.8537 113.574 46.8537C134.779 46.8537 151.965 46.943 151.965 47.0472Z" fill="#E0E0E0"/>
<path d="M151.965 49.9797C151.965 50.0914 134.779 50.1733 113.574 50.1733C92.3685 50.1733 75.1826 50.0914 75.1826 49.9797C75.1826 49.8681 92.3685 49.7862 113.574 49.7862C134.779 49.7862 151.965 49.9053 151.965 49.9797Z" fill="#E0E0E0"/>
<path d="M151.965 66.786C151.965 66.8977 134.779 66.9796 113.574 66.9796C92.3685 66.9796 75.1826 66.8977 75.1826 66.786C75.1826 66.6744 92.3685 66.5925 113.574 66.5925C134.779 66.5925 151.965 66.6818 151.965 66.786Z" fill="#E0E0E0"/>
<path d="M151.965 69.7483C151.965 69.86 134.779 69.9418 113.574 69.9418C92.3685 69.9418 75.1826 69.86 75.1826 69.7483C75.1826 69.6367 92.3685 69.5548 113.574 69.5548C134.779 69.5548 151.965 69.6441 151.965 69.7483Z" fill="#E0E0E0"/>
<path d="M151.965 72.7106C151.965 72.8148 134.779 72.9041 113.574 72.9041C92.3685 72.9041 75.1826 72.8148 75.1826 72.7106C75.1826 72.6064 92.3685 72.5171 113.574 72.5171C134.779 72.5171 151.965 72.6064 151.965 72.7106Z" fill="#E0E0E0"/>
<path d="M151.965 75.673C151.965 75.7772 134.779 75.8665 113.574 75.8665C92.3685 75.8665 75.1826 75.7772 75.1826 75.673C75.1826 75.5688 92.3685 75.4794 113.574 75.4794C134.779 75.4794 151.965 75.5613 151.965 75.673Z" fill="#E0E0E0"/>
<path d="M151.965 92.4495C151.965 92.5537 134.779 92.643 113.574 92.643C92.3685 92.643 75.1826 92.5537 75.1826 92.4495C75.1826 92.3453 92.3685 92.256 113.574 92.256C134.779 92.256 151.965 92.3453 151.965 92.4495Z" fill="#E0E0E0"/>
<path d="M151.965 95.382C151.965 95.4862 134.779 95.5755 113.574 95.5755C92.3685 95.5755 75.1826 95.4862 75.1826 95.382C75.1826 95.2778 92.3685 95.1885 113.574 95.1885C134.779 95.1885 151.965 95.3001 151.965 95.382Z" fill="#E0E0E0"/>
<path d="M151.965 98.3593C151.965 98.4635 134.779 98.5528 113.574 98.5528C92.3685 98.5528 75.1826 98.4635 75.1826 98.3593C75.1826 98.2551 92.3685 98.1657 113.574 98.1657C134.779 98.1657 151.965 98.2625 151.965 98.3593Z" fill="#E0E0E0"/>
<path d="M151.965 101.336C151.965 101.448 134.779 101.53 113.574 101.53C92.3685 101.53 75.1826 101.448 75.1826 101.336C75.1826 101.225 92.3685 101.143 113.574 101.143C134.779 101.143 151.965 101.225 151.965 101.336Z" fill="#E0E0E0"/>
<path d="M145.162 26.3482C145.162 27.42 128.102 28.2909 107.068 28.2909C86.0346 28.2909 68.9678 27.42 68.9678 26.3482C68.9678 25.2764 86.0197 24.4131 107.068 24.4131C128.117 24.4131 145.162 25.2764 145.162 26.3482Z" fill="#E0E0E0"/>
<path d="M270.829 8.38082H268.737V4.42114C268.762 3.84101 268.56 3.27405 268.173 2.84052C267.787 2.40698 267.247 2.14098 266.668 2.09893H250.747C250.17 2.14282 249.631 2.40962 249.247 2.84295C248.862 3.27628 248.661 3.8422 248.686 4.42114V8.38082H246.616V4.42114C246.584 3.28505 247.003 2.1824 247.781 1.35403C248.559 0.525654 249.634 0.0388728 250.77 0H266.69C267.827 0.0369488 268.904 0.52289 269.683 1.35147C270.463 2.18006 270.883 3.2838 270.851 4.42114L270.829 8.38082Z" fill="#EBEBEB"/>
<path d="M292.949 8.3808H224.154C220.401 8.3808 217.358 11.4232 217.358 15.1763V56.671C217.358 60.424 220.401 63.4664 224.154 63.4664H292.949C296.703 63.4664 299.745 60.424 299.745 56.671V15.1763C299.745 11.4232 296.703 8.3808 292.949 8.3808Z" fill="#EBEBEB"/>
<path d="M261.183 24.8001H256.241V46.943H261.183V24.8001Z" fill="#F5F5F5"/>
<path d="M247.636 33.4042V38.3463H269.779V33.4042H247.636Z" fill="#F5F5F5"/>
<path d="M277.133 35.9273C277.133 35.9273 277.133 35.8231 277.133 35.6296C277.133 35.4361 277.096 35.1235 277.066 34.7513C277.066 34.5578 277.066 34.342 277.029 34.1112C276.992 33.8805 276.947 33.62 276.902 33.3669C276.82 32.7257 276.69 32.0913 276.515 31.469C276.082 29.7466 275.39 28.1002 274.461 26.5864C272.025 22.5689 268.147 19.6334 263.619 18.38C259.091 17.1266 254.255 17.6499 250.1 19.843C249.324 20.2702 248.578 20.7501 247.867 21.2795C247.14 21.822 246.449 22.4113 245.798 23.0435C245.155 23.7067 244.558 24.4129 244.012 25.1573C242.877 26.6839 241.995 28.3827 241.399 30.1888C240.139 33.9285 240.139 37.9783 241.399 41.718C241.991 43.5245 242.871 45.2235 244.004 46.7495C244.556 47.4946 245.155 48.2032 245.798 48.8707C246.449 49.5026 247.14 50.0919 247.867 50.6347C248.578 51.1641 249.324 51.644 250.1 52.0712C250.869 52.4746 251.665 52.8252 252.482 53.1207C255.556 54.2398 258.873 54.5174 262.091 53.9245C264.642 53.445 267.064 52.4312 269.196 50.9496C271.328 49.468 273.122 47.5521 274.461 45.3278C275.39 43.814 276.082 42.1676 276.515 40.4452C276.69 39.8229 276.82 39.1885 276.902 38.5473C276.947 38.2644 276.999 38.0114 277.029 37.803C277.059 37.5946 277.029 37.3564 277.066 37.1629C277.066 36.7907 277.118 36.5004 277.133 36.2846C277.148 36.0688 277.133 35.9869 277.133 35.9869C277.146 36.0857 277.146 36.1858 277.133 36.2846C277.133 36.5004 277.133 36.7907 277.133 37.1629C277.133 37.3614 277.133 37.5772 277.133 37.8104C277.133 38.0486 277.066 38.3091 277.029 38.5919C276.954 39.2394 276.834 39.881 276.672 40.5122C276.254 42.2561 275.577 43.9271 274.662 45.4693C273.32 47.739 271.512 49.6978 269.356 51.2158C267.201 52.7338 264.747 53.7763 262.158 54.2743C258.887 54.9016 255.508 54.6447 252.37 53.53C251.536 53.2311 250.722 52.8755 249.936 52.4657C249.139 52.0217 248.374 51.5244 247.644 50.9771C246.902 50.4248 246.196 49.8256 245.53 49.1833C244.872 48.5053 244.261 47.7843 243.699 47.0248C242.537 45.4654 241.635 43.7287 241.027 41.8817C240.411 39.9818 240.087 37.9991 240.067 36.0018C240.091 34.0023 240.414 32.0177 241.027 30.1144C241.64 28.2716 242.542 26.5381 243.699 24.9787C244.261 24.2196 244.873 23.4985 245.53 22.8202C246.17 22.153 246.854 21.5289 247.577 20.952C248.301 20.4006 249.065 19.9031 249.862 19.4634C250.648 19.0536 251.461 18.698 252.296 18.3991C255.431 17.2847 258.808 17.0277 262.076 17.6548C264.666 18.1518 267.121 19.1939 269.278 20.7119C271.436 22.23 273.245 24.1892 274.588 26.4598C275.502 28.002 276.18 29.673 276.597 31.4169C276.76 32.048 276.88 32.6896 276.954 33.3372C276.992 33.62 277.036 33.8731 277.059 34.0815C277.081 34.2899 277.059 34.5355 277.059 34.7365C277.059 35.1012 277.059 35.3989 277.059 35.6147C277.098 35.7149 277.123 35.8202 277.133 35.9273V35.9273Z" fill="#F5F5F5"/>
<path d="M324.396 12.4373V4.10855H318.538V12.4373H312.643V60.0725H329.874V12.4373H324.396Z" fill="#EBEBEB"/>
<path d="M350 60.0799H207.868V67.3293H350V60.0799Z" fill="#E0E0E0"/>
<path d="M239.784 67.3368H235.646V84.478H239.784V67.3368Z" fill="#E0E0E0"/>
<path d="M322.535 67.3368H318.397V84.478H322.535V67.3368Z" fill="#E0E0E0"/>
<path d="M292.346 25.2541V19.1657H288.059V25.2541H283.75V60.0799H296.343V25.2541H292.346Z" fill="#FAFAFA"/>
<path d="M306.638 25.2541V19.1657H302.358V25.2541H298.048V60.0799H310.627V25.2541H306.638Z" fill="#F5F5F5"/>
<path d="M235.646 37.4532H213.019V60.0799H235.646V37.4532Z" fill="#E0E0E0"/>
<path d="M235.534 43.281C235.534 43.4299 230.54 43.549 224.37 43.549C218.199 43.549 213.205 43.4299 213.205 43.281C213.205 43.1322 218.199 43.0205 224.37 43.0205C230.54 43.0205 235.534 43.1247 235.534 43.281Z" fill="#EBEBEB"/>
<path d="M225.188 46.2582C225.188 46.2582 225.27 46.2583 225.419 46.2955C225.634 46.3549 225.838 46.4505 226.022 46.5783C226.69 47.0861 227.135 47.8331 227.265 48.6623C227.547 49.8793 227.336 51.1588 226.677 52.2201C226.26 52.8517 225.641 53.3219 224.92 53.5524C224.151 53.7716 223.337 53.7716 222.568 53.5524C221.816 53.387 221.124 53.0164 220.569 52.4816C220.015 51.9469 219.62 51.269 219.427 50.5231C219.291 49.9103 219.317 49.2725 219.504 48.6731C219.691 48.0737 220.031 47.5337 220.491 47.1067C221.105 46.5491 221.896 46.2251 222.724 46.1913C223.025 46.1533 223.331 46.2051 223.603 46.3401C223.603 46.3848 223.283 46.3401 222.747 46.3997C221.987 46.5005 221.28 46.8423 220.73 47.3747C220.341 47.7681 220.06 48.2544 219.913 48.7873C219.766 49.3202 219.757 49.8819 219.889 50.4189C220.229 51.3847 220.914 52.1906 221.813 52.6812C222.711 53.1718 223.76 53.3124 224.756 53.076C225.364 52.8819 225.888 52.4886 226.245 51.9596C226.846 51.0057 227.064 49.8597 226.855 48.7517C226.772 47.9909 226.418 47.2855 225.858 46.7644C225.486 46.3922 225.173 46.3029 225.188 46.2582Z" fill="#EBEBEB"/>
<path d="M24.875 225.865C20.1338 223.424 14.559 223.104 9.29679 223.975C6.46845 224.444 3.52102 225.285 1.59328 227.406C-0.334452 229.527 -0.691716 233.271 1.51885 235.095C2.82882 236.181 4.66724 236.345 6.37169 236.323C10.4877 236.278 15.0577 235.578 18.3549 238.027C20.2306 239.441 21.481 241.793 23.7213 242.493C25.9617 243.193 28.3955 241.875 29.5641 239.895C30.6327 237.829 30.8697 235.432 30.2265 233.197C29.9595 231.645 29.3377 230.176 28.4094 228.904C27.4811 227.632 26.2715 226.592 24.875 225.865V225.865Z" fill="#EBEBEB"/>
<path d="M35.7338 204.906C32.8384 209.044 27.2041 207.675 24.5693 205.144C21.9344 202.613 20.8478 198.959 19.8504 195.468C17.5505 187.489 15.2357 179.093 16.9476 170.988C17.3571 168.524 18.4389 166.222 20.0737 164.334C21.7781 162.533 24.4055 161.461 26.7724 162.101C29.6156 162.845 31.3796 165.636 32.6524 168.279C36.4111 176.093 38.3816 184.646 38.4207 193.317C38.4207 197.351 37.9592 201.579 35.6817 204.913" fill="#EBEBEB"/>
<path d="M43.6987 210.845C40.5503 207.124 39.9772 201.661 41.3542 196.979C42.7311 192.297 45.9167 188.323 49.5415 185.07C53.8387 181.25 58.8394 178.305 64.2637 176.399C66.3601 175.552 68.6147 175.169 70.8731 175.275C73.106 175.491 75.3761 176.637 76.4182 178.632C77.9663 181.609 76.4851 185.167 74.8775 188.085C72.0466 193.233 68.8112 198.149 65.2016 202.784C62.3062 206.506 58.9941 210.227 54.5804 211.887C50.1667 213.547 45.5892 213.376 43.2521 210.317" fill="#EBEBEB"/>
<path d="M35.9356 267.315C35.773 266.7 35.6831 266.068 35.6677 265.432C35.5337 264.07 35.37 262.351 35.169 260.304C34.9156 257.775 34.5305 255.261 34.0153 252.772C33.3441 249.74 32.428 246.768 31.2763 243.885C30.1524 241.005 28.6263 238.298 26.7435 235.846C25.2078 233.85 23.2477 232.221 21.005 231.075C19.483 230.328 17.8529 229.826 16.1745 229.587C15.542 229.559 14.9138 229.469 14.2988 229.319C14.9317 229.243 15.5713 229.243 16.2042 229.319C17.9494 229.446 19.6569 229.89 21.2431 230.629C23.6043 231.743 25.6755 233.389 27.2943 235.437C29.261 237.917 30.8465 240.676 31.9983 243.624C33.1658 246.551 34.0749 249.575 34.715 252.66C35.205 255.178 35.5405 257.723 35.7198 260.282C35.8835 262.462 35.9431 264.226 35.9728 265.447C36.0271 266.069 36.0147 266.696 35.9356 267.315Z" fill="#E0E0E0"/>
<path d="M35.5778 263.4C35.5243 263.111 35.5068 262.816 35.5257 262.522C35.5257 261.867 35.5257 261.033 35.5257 260.029C35.5257 257.863 35.5257 254.729 35.414 250.859C35.2205 243.118 34.5581 234.782 33.2704 223.037C32.0498 211.991 30.4123 199.137 28.6856 190.786C28.3209 188.881 27.9413 187.169 27.5914 185.673C27.2416 184.177 26.9737 182.882 26.6983 181.832C26.4229 180.783 26.2666 180.046 26.1177 179.406C26.0347 179.125 25.9823 178.835 25.9614 178.543C26.0912 178.804 26.1934 179.079 26.2666 179.361C26.4527 179.994 26.6983 180.783 27.0109 181.758C27.3235 182.733 27.6659 184.08 28.038 185.576C28.4102 187.072 28.8419 188.769 29.2438 190.667C31.3843 200.55 32.9943 210.541 34.0668 220.596C35.3545 232.37 35.935 243.088 35.9871 250.844C36.0318 254.729 35.9499 257.87 35.8532 260.036C35.7862 261.048 35.7415 261.874 35.6969 262.529C35.6921 262.823 35.6522 263.116 35.5778 263.4V263.4Z" fill="#E0E0E0"/>
<path d="M35.5259 242.753C35.4575 241.886 35.4575 241.015 35.5259 240.148C35.6769 237.779 35.9502 235.419 36.3446 233.077C36.9144 229.606 37.6798 226.169 38.6371 222.784C39.7627 218.621 41.2033 214.551 42.9466 210.607C46.5118 202.144 51.3646 195.215 55.5997 190.928C56.5332 189.946 57.5275 189.024 58.5769 188.166C59.0309 187.779 59.4402 187.422 59.8496 187.087L61.0033 186.298C61.7075 185.769 62.4544 185.298 63.2362 184.892C63.3553 185.063 60.125 186.961 56.0388 191.307C50.8263 197.085 46.6379 203.711 43.6536 210.897C41.9451 214.818 40.5004 218.849 39.3293 222.962C38.3439 226.316 37.5291 229.716 36.888 233.152C36.3446 236.084 36.032 238.481 35.8459 240.141C35.8073 241.019 35.7003 241.892 35.5259 242.753V242.753Z" fill="#E0E0E0"/>
<path d="M55.5028 279.187L53.4336 307.567H16.9778L14.9087 279.187H55.5028Z" fill="#E0E0E0"/>
<path d="M59.0308 268.007H10.562V279.194H59.0308V268.007Z" fill="#E0E0E0"/>
<path d="M59.0238 306.48V309.577H56.7537H11.3589V306.48H59.0238Z" fill="#EBEBEB"/>
<path d="M54.5209 315.032L56.7538 309.577H13.1006L15.7056 315.032H54.5209Z" fill="#E0E0E0"/>
<path d="M15.5859 288.461C15.632 288.554 15.6895 288.642 15.7571 288.721L16.3005 289.466L18.4217 292.182L18.5185 292.309L18.6078 292.182C19.9475 290.336 21.7264 287.865 23.8179 284.963H23.5202L28.6558 292.234L28.8196 292.465L28.9982 292.249L35.0866 285H34.7368L35.0717 285.417L40.52 292.249L40.6986 292.473L40.8698 292.242C42.7157 289.622 44.4499 287.181 46.0055 284.97H45.7078L52.0417 292.175L52.1534 292.309L52.2353 292.16C53.0689 290.761 53.7239 289.644 54.2151 288.833L54.7287 287.947C54.7934 287.847 54.8459 287.74 54.885 287.627C54.8016 287.712 54.7291 287.807 54.6691 287.91C54.5203 288.133 54.3342 288.416 54.1109 288.766L52.0269 292.033H52.2278L45.998 284.732L45.8417 284.546L45.7003 284.747L40.4902 291.989H40.84C39.1133 289.823 37.2897 287.523 35.4066 285.149L35.0717 284.732L34.9005 284.516L34.7219 284.724L28.641 291.989H28.9833C27.1077 289.369 25.366 286.935 23.7732 284.754L23.6244 284.538L23.4755 284.754L18.3696 292.048H18.5557L16.3228 289.399C16.0846 289.123 15.8911 288.893 15.7274 288.714C15.5636 288.535 15.5934 288.453 15.5859 288.461Z" fill="#F5F5F5"/>
<path d="M14.3955 279.001C14.3955 279.127 23.5281 279.232 34.7968 279.232C46.0655 279.232 55.198 279.127 55.198 279.001C55.198 278.874 46.0655 278.777 34.7968 278.777C23.5281 278.777 14.3955 278.874 14.3955 279.001Z" fill="#F5F5F5"/>
<path d="M12.564 309.882C12.564 310.008 22.4855 310.113 34.7292 310.113C46.9729 310.113 56.9019 310.008 56.9019 309.882C56.9019 309.755 46.9804 309.659 34.7292 309.659C22.478 309.659 12.564 309.74 12.564 309.882Z" fill="#F5F5F5"/>
<path d="M333.037 93.953H264.301V165.607H333.037V93.953Z" fill="#E0E0E0"/>
<path d="M328.386 93.953H259.65V165.607H328.386V93.953Z" fill="#EBEBEB"/>
<path d="M319.141 103.584H268.886V155.975H319.141V103.584Z" fill="#FAFAFA"/>
<path d="M268.886 156.318C268.522 156.838 268.103 157.317 267.636 157.747C266.824 158.588 265.693 159.734 264.435 160.977C263.177 162.22 262.009 163.337 261.153 164.126C260.719 164.582 260.237 164.992 259.716 165.346C260.086 164.835 260.505 164.361 260.967 163.932C261.778 163.084 262.909 161.937 264.175 160.694C265.44 159.451 266.609 158.327 267.457 157.538C267.894 157.087 268.372 156.679 268.886 156.318Z" fill="#E0E0E0"/>
<path d="M319.148 156.191C319.66 156.566 320.135 156.988 320.57 157.449C321.411 158.253 322.557 159.384 323.8 160.65C325.043 161.915 326.16 163.076 326.956 163.925C327.411 164.363 327.822 164.844 328.184 165.361C327.667 164.996 327.191 164.577 326.763 164.111C325.922 163.307 324.775 162.176 323.525 160.903C322.274 159.63 321.158 158.476 320.369 157.62C319.914 157.187 319.505 156.708 319.148 156.191V156.191Z" fill="#E0E0E0"/>
<path d="M319.008 103.726C319.381 103.211 319.803 102.732 320.266 102.297C321.077 101.455 322.201 100.309 323.466 99.0663C324.731 97.8233 325.893 96.7069 326.749 95.9179C327.182 95.4584 327.664 95.0467 328.185 94.6898C327.812 95.2004 327.393 95.6762 326.935 96.1114C326.123 96.9525 324.992 98.0987 323.727 99.3491C322.461 100.6 321.293 101.709 320.444 102.498C320.009 102.955 319.527 103.366 319.008 103.726Z" fill="#E0E0E0"/>
<path d="M268.752 103.852C268.239 103.48 267.762 103.059 267.33 102.594C266.482 101.79 265.343 100.659 264.093 99.3938C262.842 98.1285 261.741 96.9674 260.944 96.1189C260.49 95.6807 260.078 95.1996 259.716 94.6824C260.233 95.0474 260.71 95.4666 261.138 95.9328C261.979 96.7367 263.125 97.868 264.376 99.1408C265.626 100.414 266.735 101.567 267.531 102.423C267.986 102.857 268.395 103.335 268.752 103.852V103.852Z" fill="#E0E0E0"/>
<path d="M319.008 155.975C319.008 155.975 319.008 155.886 319.008 155.722C319.008 155.559 319.008 155.306 319.008 154.978C319.008 154.323 319.008 153.378 319.008 152.15C319.008 149.671 319.008 146.061 319.008 141.476C319.008 132.299 318.956 119.229 318.918 103.569L319.082 103.733H268.968L269.162 103.547C269.162 122.772 269.162 140.762 269.162 155.938L268.998 155.775L305.298 155.856L315.495 155.901H318.189H318.881H319.119H318.219H315.562H305.402L268.998 155.983H268.842V155.827C268.842 140.65 268.842 122.661 268.842 103.435V103.242H269.035H319.149H319.32V103.569C319.32 119.267 319.261 132.381 319.238 141.581C319.238 146.151 319.238 149.768 319.194 152.217C319.194 153.43 319.194 154.368 319.194 155.015C319.194 155.32 319.194 155.551 319.194 155.76C319.194 155.968 319.008 155.975 319.008 155.975Z" fill="#E0E0E0"/>
<path d="M282.157 125.467C282.157 125.467 281.078 138.44 295.123 138.44C295.123 131.518 289.414 126.055 282.157 125.467Z" fill="#EBEBEB"/>
<path d="M307.858 125.481C307.858 125.481 294.885 124.402 294.885 138.447C301.807 138.447 307.27 132.738 307.858 125.481Z" fill="#EBEBEB"/>
<path d="M294.505 118.381C294.505 118.381 283.906 127.893 295.086 138.44C300.281 132.932 299.842 124.298 294.505 118.381Z" fill="#E0E0E0"/>
<path d="M333.804 315.122C333.804 315.233 263.222 315.315 176.177 315.315C89.1306 315.315 18.5264 315.233 18.5264 315.122C18.5264 315.01 89.0934 314.928 176.177 314.928C263.26 314.928 333.804 315.017 333.804 315.122Z" fill="#263238"/>
<path d="M146.709 188.531C146.709 188.531 131.712 186.179 130.461 186.224C129.211 186.268 117.317 188.598 117.317 188.598C117.317 188.598 100.488 191.575 98.7913 192.796C97.0942 194.017 98.3447 197.85 98.3447 197.85C100.213 198.594 106.1 197.426 106.1 197.426C106.165 198.726 106.516 199.997 107.127 201.147C108.184 203.276 111.072 202.74 111.072 202.74L108.839 203.901C109.028 205.25 109.368 206.573 109.852 207.846C110.67 210.079 116.037 209.759 116.037 209.759C116.037 209.759 117.451 212.944 119.676 213.48C121.902 214.016 133.483 211.299 136.922 210.927C140.36 210.555 146.955 206.461 146.955 206.461C149.608 207.404 152.308 208.206 155.045 208.865L156.735 187.013C155.47 186.931 146.709 188.531 146.709 188.531Z" fill="#455A64"/>
<path d="M86.5922 257.84C80.1987 256.233 75.3607 250.643 73.1948 244.443C71.0289 238.243 71.081 231.44 71.7062 224.883C71.9491 223.671 71.8485 222.416 71.4159 221.258C70.56 219.501 68.208 218.891 66.3398 219.472C64.4716 220.052 63.0351 221.526 61.874 223.067C58.5733 227.333 56.5815 232.465 56.1403 237.84C55.6991 243.216 56.8274 248.604 59.3885 253.351C61.9495 258.098 65.8331 262 70.5682 264.583C75.3032 267.166 80.6861 268.319 86.0638 267.903" fill="#E7D5A9"/>
<path d="M135.061 196.138C135.061 196.138 150.044 222.092 153.832 232.527C157.621 242.962 162.444 271.655 162.444 271.655C162.444 271.655 184.937 277.445 171.003 301.635C165.853 310.567 166.314 314.72 160.538 314.988C156.073 315.189 119.81 314.913 119.81 314.913L120.465 318.464C120.465 318.464 117.429 328.72 111.295 325.825C105.162 322.929 97.8981 314.913 97.8981 314.913L87.3514 314.772L62.2461 314.95L54.8999 314.809V314.608C55.1502 312.612 55.9728 310.731 57.2684 309.193C58.5641 307.654 60.2774 306.523 62.2015 305.937L67.5902 304.3C67.5902 304.3 60.5864 274.885 66.6524 267.829C72.7184 260.773 82.5879 261.257 82.5879 261.257L78.0551 230.986C77.1544 223.89 77.8693 216.681 80.1465 209.9L83.548 199.785L135.061 196.138Z" fill="#E7D5A9"/>
<path d="M82.9969 262.269C93.4171 268.171 100.399 278.063 103.889 289.361C103.889 289.481 104.105 289.428 104.068 289.317C101.366 280.556 96.5655 272.444 89.4872 266.519C87.491 264.861 85.3514 263.384 83.0937 262.105C82.9895 262.046 82.8927 262.209 82.9969 262.269Z" fill="#263238"/>
<path d="M83.2209 200.82C83.2209 200.82 78.3308 213.882 77.9214 220.41C77.2441 231.239 82.6105 261.242 82.6105 261.242C82.6105 261.242 80.7721 290.649 79.1793 295.011C77.5865 299.372 78.2489 303.392 70.992 304.873C69.0345 305.275 65.6182 311.623 65.6182 314.772H85.9152C85.9152 314.772 91.4082 308.564 91.6687 302.759C91.9292 296.953 101.59 265.41 101.59 265.41" fill="#E7D5A9"/>
<path d="M101.59 265.41C101.59 265.41 101.59 265.492 101.53 265.648C101.471 265.804 101.418 266.05 101.329 266.348C101.15 266.965 100.89 267.874 100.548 269.042C99.8554 271.424 98.858 274.885 97.5704 279.276C96.2827 283.668 94.809 289.027 93.2907 295.189C92.9111 296.73 92.5463 298.323 92.2189 299.975C92.1444 300.387 92.07 300.804 91.9956 301.226C91.9211 301.642 91.8914 302.067 91.8393 302.491L91.7053 303.801C91.6309 304.24 91.5564 304.679 91.4448 305.118C90.3614 308.725 88.5133 312.056 86.0263 314.883L85.9816 314.943H85.8998H65.6027H65.4092V314.757C65.5905 312.786 66.1812 310.875 67.1434 309.145C67.5969 308.246 68.1221 307.385 68.7139 306.57C69.0186 306.158 69.3572 305.772 69.7261 305.416C70.1037 305.027 70.5837 304.754 71.1105 304.627C73.0457 304.203 75.0627 303.481 76.3206 301.903C77.5785 300.325 77.9432 298.181 78.5535 296.172C78.6577 295.792 78.7917 295.428 78.9182 295.048C79.0448 294.668 79.1192 294.304 79.2234 293.946C79.3722 293.202 79.536 292.458 79.6402 291.713C79.8784 290.225 80.0644 288.677 80.2356 287.166C80.5855 284.144 80.8534 281.159 81.1139 278.234C81.62 272.354 82.0368 266.675 82.3941 261.257V261.301C80.8534 252.414 79.6253 244.182 78.7545 236.739C78.3228 233.018 78.0102 229.542 77.8167 226.319C77.5649 223.338 77.6925 220.337 78.1963 217.388C78.7098 214.716 79.3722 212.364 79.9677 210.324C80.5631 208.285 81.1437 206.566 81.62 205.166C82.0964 203.767 82.4909 202.71 82.7514 201.988L83.064 201.177C83.1384 200.991 83.1831 200.901 83.1831 200.901L83.0937 201.184C83.0268 201.385 82.93 201.653 82.8109 202.01C82.5653 202.755 82.2006 203.819 81.7317 205.203C81.2628 206.588 80.7269 208.337 80.1389 210.376C79.5509 212.416 78.9108 214.768 78.4121 217.432C77.9251 220.384 77.8151 223.385 78.0846 226.364C78.2632 229.609 78.6131 233.063 79.0596 236.784C79.9454 244.182 81.1958 252.414 82.7811 261.346V261.391C82.4313 266.817 82.0368 272.496 81.5233 278.376C81.2702 281.316 80.9948 284.33 80.6524 287.307C80.4738 288.796 80.2877 290.344 80.0496 291.87C79.9454 292.614 79.7816 293.396 79.6327 294.162C79.5211 294.542 79.4243 294.906 79.3127 295.308C79.2011 295.71 79.0596 296.053 78.9554 296.41C78.6577 297.415 78.4195 298.434 78.0995 299.447C77.8014 300.469 77.3141 301.425 76.663 302.268C75.978 303.08 75.1214 303.731 74.1547 304.173C73.2028 304.607 72.2037 304.929 71.1775 305.133C70.7167 305.241 70.2975 305.482 69.9717 305.825C69.6182 306.164 69.2945 306.533 69.0041 306.927C68.4258 307.723 67.913 308.564 67.4709 309.443C66.5326 311.119 65.9522 312.972 65.7664 314.883L65.5804 314.697H85.8774L85.7509 314.75C88.2079 311.966 90.038 308.686 91.1173 305.133C91.2215 304.709 91.3034 304.277 91.3778 303.853L91.5118 302.565C91.5639 302.134 91.6011 301.695 91.6681 301.27C91.7351 300.846 91.8244 300.429 91.9063 300.012C92.2337 298.36 92.6133 296.76 92.9929 295.219C94.5336 289.049 96.0818 283.72 97.3545 279.313C98.6273 274.907 99.6842 271.468 100.406 269.109C100.771 267.948 101.046 267.047 101.24 266.422L101.463 265.737C101.495 265.625 101.538 265.515 101.59 265.41V265.41Z" fill="#263238"/>
<path d="M137.131 214.396C137.131 214.396 137.205 214.552 137.332 214.872L137.868 216.301C138.337 217.566 139.014 219.42 139.892 221.801C141.626 226.587 144.135 233.509 147.045 242.136C147.789 244.294 148.534 246.557 149.241 248.939C149.613 250.122 149.985 251.343 150.305 252.593C150.608 253.878 150.835 255.181 150.982 256.493C151.63 261.815 151.935 267.531 152.277 273.538C152.62 279.544 152.903 285.856 153.342 292.383C153.572 295.643 153.811 298.97 154.272 302.305C154.391 303.138 154.525 303.979 154.711 304.798C154.802 305.213 154.922 305.621 155.068 306.019C155.135 306.203 155.225 306.378 155.336 306.54C155.389 306.599 155.448 306.674 155.5 306.689C155.59 306.729 155.682 306.764 155.776 306.793C156.623 307.04 157.425 307.422 158.15 307.924C158.514 308.179 158.853 308.468 159.162 308.788C159.465 309.118 159.732 309.48 159.959 309.867C160.824 311.458 161.089 313.307 160.703 315.077V315.226H160.547H137.853H137.659V315.04C137.748 313.144 138.035 311.264 138.515 309.428C138.947 307.619 139.438 305.855 140.004 304.128V304.203C138.634 295.271 137.339 287.002 136.126 279.641C135.508 275.964 134.935 272.503 134.295 269.317C134.206 268.923 134.139 268.521 134.035 268.141L133.886 267.576C133.823 267.396 133.746 267.222 133.655 267.055C133.286 266.394 132.86 265.766 132.382 265.179C131.474 264.003 130.529 262.946 129.636 261.912C126.011 257.863 122.989 254.804 120.935 252.697L118.568 250.293L117.965 249.675C117.824 249.534 117.764 249.46 117.764 249.46L117.98 249.653L118.613 250.248C119.163 250.799 119.965 251.588 121.017 252.615C123.093 254.699 126.145 257.736 129.799 261.763C130.7 262.783 131.653 263.847 132.576 265.038C133.069 265.633 133.505 266.274 133.878 266.951C133.979 267.126 134.064 267.311 134.131 267.501L134.28 268.082C134.392 268.469 134.459 268.863 134.548 269.265C135.211 272.458 135.791 275.912 136.416 279.596C137.659 286.957 138.977 295.227 140.354 304.158V304.24C139.825 305.959 139.334 307.716 138.91 309.517C138.443 311.327 138.161 313.18 138.069 315.047L137.883 314.861L160.576 314.817L160.383 314.965C160.731 313.294 160.467 311.553 159.638 310.06C159.423 309.7 159.174 309.361 158.894 309.048C158.601 308.752 158.282 308.483 157.941 308.244C157.26 307.767 156.506 307.402 155.709 307.165C155.597 307.128 155.488 307.086 155.381 307.039C155.253 306.978 155.144 306.883 155.068 306.763C154.932 306.577 154.824 306.371 154.748 306.153C154.594 305.746 154.469 305.328 154.376 304.902C154.183 304.061 154.049 303.22 153.93 302.379C153.468 299.015 153.23 295.681 152.999 292.421C152.568 285.886 152.255 279.574 151.957 273.567C151.66 267.561 151.332 261.852 150.707 256.545C150.561 255.246 150.34 253.956 150.044 252.682C149.712 251.437 149.362 250.221 148.995 249.035C148.251 246.661 147.506 244.398 146.822 242.24C143.949 233.606 141.478 226.669 139.788 221.868C138.939 219.479 138.299 217.618 137.83 216.338C137.615 215.72 137.443 215.237 137.332 214.902C137.22 214.567 137.131 214.396 137.131 214.396Z" fill="#263238"/>
<path d="M117.31 282.946C117.161 282.852 117.022 282.745 116.893 282.626L115.754 281.658C114.786 280.795 113.417 279.499 111.832 277.802C107.732 273.347 103.935 268.623 100.466 263.661C96.9462 258.741 93.7632 253.589 90.9391 248.239C89.8748 246.17 89.1156 244.45 88.6318 243.245C88.4234 242.664 88.2522 242.203 88.1182 241.845C88.0516 241.684 87.9993 241.517 87.9619 241.347C88.055 241.494 88.1324 241.652 88.1926 241.816L88.7732 243.185C89.3017 244.369 90.0906 246.066 91.1847 248.112C94.0723 253.41 97.2787 258.528 100.786 263.437C104.249 268.372 108.004 273.094 112.033 277.579C113.588 279.299 114.92 280.616 115.858 281.509L116.945 282.529C117.079 282.657 117.201 282.796 117.31 282.946V282.946Z" fill="#263238"/>
<path d="M104.827 280.095C106.203 284.493 107.114 289.023 107.544 293.611C107.557 294.101 107.757 294.566 108.104 294.913C108.45 295.259 108.915 295.459 109.405 295.472C109.898 295.47 110.37 295.274 110.718 294.925C111.067 294.576 111.264 294.104 111.265 293.611C110.827 288.689 109.872 283.827 108.415 279.105C108.284 278.629 107.969 278.225 107.539 277.982C107.11 277.738 106.602 277.675 106.126 277.806C105.65 277.937 105.246 278.252 105.003 278.682C104.759 279.111 104.696 279.619 104.827 280.095V280.095Z" fill="#E7D5A9"/>
<path d="M83.3401 203.812C82.7074 187.891 81.5612 169.306 83.2954 163.247C85.0296 157.189 97.2138 145.22 104.218 142.407C111.222 139.593 122.825 143.33 126.323 146.434L148.37 141.134C148.37 141.134 152.694 151.16 147.365 159.198C142.036 167.237 126.316 167.147 126.316 167.147C126.316 167.147 124.909 175.893 131.63 176.66C138.351 177.426 147.298 176.377 148.154 183.686L134.347 184.921L135.091 197.098L108.817 211.061L84.2184 203.96" fill="#E7D5A9"/>
<path d="M102.222 152.105C102.301 152.318 102.349 152.541 102.364 152.768L102.639 154.688C102.862 156.452 103.16 158.841 103.532 161.751C103.904 164.661 104.277 168.323 104.76 172.246C105.04 174.319 105.204 176.406 105.252 178.498C105.333 180.783 104.956 183.06 104.143 185.197C103.262 187.367 101.576 189.114 99.4386 190.072C97.4408 190.897 95.2386 191.091 93.127 190.63C91.2259 190.238 89.4575 189.364 87.9913 188.092C86.7529 186.968 85.7421 185.616 85.0141 184.11C83.9557 181.943 83.389 179.569 83.3543 177.158C83.3351 176.51 83.3575 175.861 83.4213 175.216C83.428 174.988 83.4681 174.762 83.5404 174.546C83.5999 174.546 83.5032 175.476 83.6074 177.143C83.7443 179.495 84.3651 181.793 85.4309 183.894C86.1754 185.331 87.1856 186.614 88.4081 187.675C89.8167 188.865 91.5045 189.677 93.3131 190.035C95.3084 190.459 97.3858 190.264 99.2674 189.476C101.251 188.582 102.811 186.955 103.622 184.936C104.397 182.884 104.761 180.699 104.693 178.505C104.651 176.437 104.502 174.373 104.247 172.32C103.837 168.383 103.465 164.825 103.153 161.803C102.84 158.781 102.647 156.482 102.475 154.71C102.416 153.966 102.364 153.296 102.319 152.782C102.26 152.561 102.228 152.334 102.222 152.105V152.105Z" fill="#263238"/>
<path d="M141.797 142.816C141.769 144.006 142.201 145.16 143.002 146.039C143.796 146.818 144.778 147.377 145.853 147.662C147.199 148.21 148.696 148.257 150.073 147.796C150.071 146.027 149.795 144.269 149.255 142.586C149.2 142.319 149.092 142.066 148.935 141.843C148.779 141.621 148.579 141.432 148.347 141.29C148.056 141.186 147.744 141.156 147.438 141.201C145.464 141.347 143.542 141.905 141.797 142.839" fill="#263238"/>
<g opacity="0.3">
<path opacity="0.3" d="M83.5706 178.55C84.166 182.487 85.2527 186.797 87.9396 189.715C90.6265 192.632 94.8616 194.374 98.7022 193.347C103.428 192.081 106.346 187.057 106.726 182.182C107.105 177.307 105.475 172.506 103.868 167.907C104.612 172.305 105.408 176.838 104.374 181.185C103.339 185.532 100.034 189.648 95.6059 190.176C94.0567 190.311 92.4977 190.074 91.0591 189.483C89.6205 188.893 88.3442 187.967 87.3367 186.782C85.2078 184.527 83.8793 181.634 83.5557 178.55" fill="black"/>
</g>
<path d="M150.148 149.537C150.208 149.919 150.208 150.309 150.148 150.691C150.064 151.737 149.897 152.775 149.65 153.795C149.284 155.313 148.75 156.786 148.057 158.186C147.219 159.936 146.007 161.481 144.507 162.711C142.977 163.879 141.271 164.796 139.453 165.428C137.989 165.958 136.482 166.364 134.95 166.641C133.922 166.838 132.883 166.97 131.839 167.036C131.459 167.098 131.072 167.098 130.692 167.036C130.692 166.932 132.308 166.798 134.853 166.202C136.344 165.865 137.809 165.423 139.237 164.877C140.98 164.234 142.618 163.336 144.097 162.213C145.521 161.039 146.685 159.581 147.514 157.933C148.213 156.58 148.776 155.162 149.196 153.698C149.918 151.16 150.029 149.53 150.148 149.537Z" fill="#263238"/>
<path d="M118.024 152.872C117.533 153.074 117.142 153.46 116.933 153.947C116.724 154.435 116.715 154.985 116.908 155.479C117.1 155.973 117.479 156.372 117.963 156.59C118.446 156.808 118.996 156.827 119.494 156.644C119.992 156.46 120.397 156.089 120.624 155.61C120.851 155.13 120.88 154.581 120.706 154.08C120.532 153.579 120.169 153.166 119.693 152.93C119.218 152.695 118.67 152.655 118.165 152.82" fill="#263238"/>
<path d="M110.41 155.231C110.164 155.328 109.755 155.008 109.45 154.308C109.079 153.379 109.001 152.358 109.227 151.383C109.419 150.402 109.91 149.505 110.633 148.815C111.199 148.302 111.705 148.175 111.891 148.361C112.271 148.778 111.504 150.096 111.147 151.8C110.79 153.504 110.961 155.008 110.41 155.231Z" fill="#263238"/>
<path d="M137.845 285.439C137.845 285.484 137.1 285.439 135.708 285.506C134.876 285.544 134.048 285.641 133.23 285.796C132.151 285.992 131.111 286.367 130.156 286.905C128.02 288.089 125.943 290.21 123.561 292.406C121.18 294.601 119.029 297.541 115.932 299.767C114.427 300.868 112.687 301.607 110.849 301.925C109.07 302.216 107.351 302.178 105.735 302.305C104.215 302.355 102.722 302.73 101.359 303.406C100.194 304.038 99.1943 304.936 98.4413 306.026C97.3225 307.607 96.7336 309.501 96.7592 311.437C96.8004 312.145 96.8925 312.849 97.0346 313.544C96.7739 312.874 96.6304 312.164 96.6103 311.445C96.5205 309.461 97.0854 307.502 98.218 305.87C98.9784 304.731 99.9989 303.79 101.195 303.124C102.594 302.413 104.13 302.014 105.698 301.955C107.336 301.814 109.048 301.836 110.774 301.553C112.555 301.237 114.24 300.519 115.702 299.454C118.731 297.273 120.912 294.385 123.308 292.153C125.705 289.92 127.774 287.858 130.007 286.66C130.997 286.128 132.069 285.763 133.178 285.58C134.007 285.44 134.845 285.366 135.686 285.357C136.378 285.357 136.914 285.357 137.279 285.394C137.468 285.394 137.657 285.409 137.845 285.439V285.439Z" fill="#263238"/>
<path d="M110.127 308.118C110.35 308.063 110.581 308.043 110.811 308.058C111.435 308.067 112.056 308.142 112.665 308.282C114.708 308.729 116.559 309.809 117.954 311.368C119.349 312.927 120.217 314.887 120.435 316.967C120.502 317.588 120.502 318.215 120.435 318.836C120.428 319.065 120.383 319.291 120.301 319.506C120.227 319.506 120.383 318.531 120.152 316.997C119.87 314.998 118.999 313.127 117.652 311.623C116.304 310.119 114.54 309.049 112.583 308.549C111.102 308.148 110.119 308.192 110.127 308.118Z" fill="#263238"/>
<path d="M117.474 317.928C117.411 318.526 117.224 319.104 116.923 319.625C116.262 320.928 115.255 322.023 114.011 322.788C112.767 323.554 111.335 323.961 109.874 323.964C109.273 324.005 108.67 323.911 108.11 323.689C108.11 323.629 108.788 323.756 109.859 323.689C111.257 323.616 112.613 323.193 113.804 322.46C114.995 321.726 115.983 320.705 116.677 319.491C117.221 318.56 117.407 317.928 117.474 317.928Z" fill="#263238"/>
<path d="M111.05 313.127C111.05 313.186 110.455 313.306 109.562 313.685C108.385 314.171 107.327 314.906 106.462 315.84C105.597 316.774 104.946 317.885 104.552 319.096C104.24 320.027 104.173 320.637 104.106 320.63C104.056 320.084 104.119 319.534 104.292 319.014C104.635 317.727 105.29 316.543 106.198 315.568C107.107 314.594 108.242 313.857 109.502 313.425C109.991 313.215 110.519 313.113 111.05 313.127Z" fill="#263238"/>
<path d="M153.438 315.464C153.452 314.965 153.504 314.467 153.594 313.975C153.749 312.783 153.64 311.571 153.274 310.425C152.865 309.304 152.042 308.382 150.974 307.85C150.513 307.671 150.034 307.541 149.545 307.463C150.058 307.323 150.604 307.37 151.086 307.597C151.674 307.845 152.205 308.212 152.645 308.676C153.084 309.14 153.423 309.69 153.639 310.291C154.034 311.491 154.111 312.774 153.862 314.013C153.806 314.517 153.662 315.009 153.438 315.464V315.464Z" fill="#263238"/>
<path d="M79.9462 306.934C79.9462 307.001 79.254 306.934 78.1822 307.076C76.785 307.28 75.4658 307.847 74.3565 308.721C73.2621 309.617 72.4184 310.781 71.9078 312.1C71.5207 313.112 71.4538 313.797 71.3868 313.789C71.3391 313.181 71.4308 312.57 71.6547 312.003C72.1023 310.591 72.9573 309.344 74.1121 308.417C75.2669 307.49 76.67 306.925 78.145 306.793C78.7483 306.701 79.3646 306.75 79.9462 306.934V306.934Z" fill="#263238"/>
<path d="M172.611 300.146C172.611 300.146 172.968 299.677 173.533 298.784C174.326 297.528 174.947 296.171 175.379 294.75C176.01 292.637 176.287 290.434 176.198 288.23C176.102 285.535 175.469 282.885 174.337 280.437C173.217 277.984 171.465 275.873 169.261 274.319C167.479 273.046 165.451 272.156 163.307 271.707C161.852 271.411 160.35 271.439 158.908 271.789C158.518 271.899 158.135 272.033 157.762 272.19C157.635 272.257 157.5 272.304 157.36 272.332C157.474 272.244 157.599 272.172 157.732 272.116C158.094 271.925 158.472 271.768 158.863 271.647C160.315 271.228 161.845 271.157 163.329 271.439C165.54 271.847 167.637 272.728 169.477 274.021C170.573 274.77 171.562 275.664 172.417 276.679C173.326 277.777 174.093 278.985 174.702 280.274C175.859 282.769 176.494 285.474 176.57 288.223C176.646 290.462 176.336 292.698 175.655 294.832C175.192 296.267 174.525 297.628 173.675 298.874C173.362 299.305 173.109 299.618 172.931 299.841C172.835 299.954 172.728 300.057 172.611 300.146V300.146Z" fill="#263238"/>
<path d="M82.5582 262.105C79.0929 261.313 75.4591 261.775 72.3018 263.408C70.2985 264.41 68.5363 265.835 67.1363 267.583C66.4132 268.475 65.8446 269.481 65.4542 270.56C65.1102 271.58 64.8611 272.629 64.7099 273.694C64.4608 275.516 64.3538 277.355 64.3898 279.194C64.3898 280.765 64.4494 282.038 64.4717 282.916C64.4717 283.318 64.4717 283.66 64.4717 283.928C64.4906 284.046 64.4906 284.167 64.4717 284.285C64.4372 284.172 64.4197 284.054 64.4196 283.935C64.4196 283.653 64.3675 283.325 64.3377 282.923C64.2708 282.038 64.1814 280.765 64.1293 279.202C64.0581 277.347 64.1402 275.49 64.375 273.649C64.5194 272.559 64.7686 271.484 65.1193 270.441C65.5171 269.316 66.1036 268.266 66.8535 267.338C68.2887 265.545 70.1037 264.094 72.1678 263.088C73.8436 262.261 75.6532 261.739 77.5118 261.547C78.7543 261.42 80.0087 261.481 81.2333 261.726C81.5688 261.787 81.8996 261.871 82.2233 261.979C82.3398 262.007 82.4523 262.049 82.5582 262.105V262.105Z" fill="#263238"/>
<path d="M51.8562 245.961C51.7545 245.701 51.6894 245.428 51.6627 245.15C51.5298 244.412 51.4403 243.666 51.3947 242.917C51.0555 237.881 52.1195 232.849 54.4687 228.381C54.8126 227.69 55.2005 227.021 55.6298 226.379C55.7669 226.135 55.9345 225.91 56.1285 225.709C56.188 225.746 55.5405 226.744 54.7069 228.455C52.5301 232.935 51.4872 237.881 51.6701 242.858C51.7371 244.785 51.9232 245.954 51.8562 245.961Z" fill="#263238"/>
<path d="M49.4667 247.122C49.3625 246.862 49.2901 246.589 49.2508 246.311C49.1243 245.79 48.9977 245.016 48.8712 244.078C48.2592 239.07 48.7521 233.989 50.3152 229.192C50.6203 228.277 50.8957 227.547 51.119 227.056C51.2112 226.795 51.3336 226.545 51.4837 226.312C51.5507 226.312 51.1116 227.451 50.5757 229.289C49.1703 234.09 48.6854 239.112 49.1466 244.093C49.3178 245.939 49.5336 247.115 49.4667 247.122Z" fill="#263238"/>
<g opacity="0.3">
<path opacity="0.3" d="M98.0175 276.634C101.116 280.039 103.33 284.155 104.463 288.617C104.792 289.58 104.805 290.623 104.5 291.594C103.644 293.604 100.883 293.693 99 294.78C97.4146 295.688 96.4396 297.34 95.5316 298.926L86.3022 314.973C89.1529 314.735 90.2098 315.032 93.0605 314.802L97.6454 314.898C97.4742 314.973 96.7522 312.718 96.6927 311.661C96.5066 308.43 98.6874 304.523 101.59 303.086C105.23 301.278 109.42 302.789 113.119 301.092C116.655 299.462 118.761 296.976 121.061 294.698C123.949 291.833 126.814 287.999 130.514 286.34C132.188 285.595 136.185 285.506 136.185 285.506C134.287 283.273 130.804 283.385 127.998 284.144C125.192 284.903 122.259 286.146 119.394 285.499C116.99 284.963 115.077 283.184 113.298 281.479C108.735 277.118 104.017 272.548 101.977 266.541L98.1738 276.373" fill="black"/>
</g>
<g opacity="0.3">
<path opacity="0.3" d="M160.539 314.988C162.027 311.37 158.648 307.098 157.293 303.436C155.939 299.774 156.222 295.636 156.229 291.684C156.25 283.333 154.902 275.036 152.24 267.122C151.942 277.974 153.185 289.495 153.832 300.325C153.966 302.625 153.788 305.282 155.477 306.845C156.341 307.649 156.854 307.299 157.822 307.969C158.789 308.639 160.687 310.202 160.539 314.965" fill="black"/>
</g>
<path d="M116.707 208.091C115.331 207.603 114.066 206.847 112.985 205.865C111.904 204.884 111.029 203.698 110.41 202.375C111.289 203.499 112.236 204.568 113.246 205.576C114.344 206.489 115.5 207.329 116.707 208.091V208.091Z" fill="#263238"/>
<path d="M119.497 206.566C117.111 205.847 115.022 204.374 113.543 202.368C113.632 202.293 114.756 203.477 116.401 204.601C118.046 205.724 119.542 206.454 119.497 206.566Z" fill="#263238"/>
<path d="M123.175 206.432C122.003 206.225 120.898 205.74 119.952 205.017C118.934 204.404 118.075 203.56 117.444 202.554C117.533 202.472 118.583 203.633 120.168 204.697C121.753 205.762 123.212 206.32 123.175 206.432Z" fill="#263238"/>
<path d="M97.8609 238.399C96.5063 237.815 95.3154 236.908 94.3925 235.757C93.3776 234.691 92.6436 233.389 92.2563 231.968C92.986 233.201 93.7992 234.382 94.6902 235.504C95.6819 236.538 96.7411 237.505 97.8609 238.399V238.399Z" fill="#263238"/>
<path d="M100.607 238.436C98.5023 237.136 96.8834 235.18 96 232.869C96.1042 232.817 96.8708 234.253 98.1436 235.787C99.4163 237.32 100.674 238.347 100.607 238.436Z" fill="#263238"/>
<path d="M105.394 239.367C104.428 238.613 103.545 237.76 102.759 236.821C101.877 235.97 101.088 235.027 100.407 234.008C101.371 234.765 102.254 235.621 103.042 236.561C103.922 237.411 104.711 238.351 105.394 239.367Z" fill="#263238"/>
<path d="M90.6259 177.426C90.6259 177.426 90.291 177.292 89.8816 176.89C89.3994 176.351 89.039 175.713 88.8247 175.022C88.5878 174.336 88.499 173.608 88.5642 172.886C88.6238 172.335 88.7578 172.015 88.8024 172.023C88.806 172.993 88.9361 173.959 89.1894 174.896C89.5508 175.801 90.0341 176.652 90.6259 177.426V177.426Z" fill="#263238"/>
<path d="M91.9361 176.853C91.3744 176.318 90.9833 175.63 90.8122 174.873C90.5268 174.152 90.457 173.363 90.6113 172.603C90.7304 172.603 90.8197 173.6 91.1844 174.754C91.5491 175.908 92.0254 176.794 91.9361 176.853Z" fill="#263238"/>
<path d="M94.8909 178.744C93.4834 177.129 92.5825 175.136 92.3008 173.012C92.4124 173.012 92.8069 174.337 93.5214 175.908C94.236 177.478 94.9803 178.639 94.8909 178.744Z" fill="#263238"/>
<path d="M182.548 41.3087C176.78 44.8441 174.822 53.3812 174.576 60.1394C174.331 66.8977 176.169 73.5368 177.665 80.1388C179.161 86.7407 180.315 93.6553 178.692 100.235C177.204 106.323 173.393 112.739 176.125 118.381C178.186 122.638 183.463 124.849 184.922 129.352C186.619 134.607 182.325 139.772 178.38 143.605C179.327 145.041 180.773 146.074 182.438 146.504C184.103 146.935 185.869 146.732 187.393 145.935C187.343 146.735 187.128 147.517 186.762 148.23C186.396 148.944 185.886 149.574 185.265 150.081C187.519 150.622 189.882 150.504 192.072 149.74C194.261 148.976 196.185 147.598 197.613 145.771C197.069 147.647 196.518 149.493 195.975 151.398C200.505 150.328 204.44 147.536 206.946 143.613L208.844 147.17C216.101 142.184 221.147 134.339 223.626 125.883C226.104 117.428 226.127 108.4 224.705 99.7064C222.593 87.4054 217.697 75.75 210.39 65.6312C203.083 55.5124 193.56 47.198 182.548 41.3235" fill="#263238"/>
<path d="M266.966 103.294C264.383 100.19 261.198 97.1088 260.84 93.0821C260.684 91.3107 261.108 89.4872 260.706 87.7455C259.664 83.2797 253.829 81.486 252.072 77.2286C249.84 71.8845 254.886 64.8136 251.164 60.3851C249.378 58.2638 246.304 57.847 243.96 56.3658C238.005 52.5922 239.449 42.2241 225.166 34.6769L226.23 57.4674C231.044 76.7424 234.867 96.2512 237.685 115.917L269.921 114.324C271.759 110.737 269.556 106.398 266.966 103.294Z" fill="#263238"/>
<path d="M175.722 49.615C175.892 46.7716 176.628 43.9907 177.885 41.4348C179.143 38.8789 180.897 36.5992 183.046 34.7291C187.772 30.6503 194.151 28.8342 200.388 28.7747C206.625 28.7151 212.795 30.1963 218.735 32.1166C222.069 33.1958 225.433 34.4462 228.135 36.6717C233.077 40.7281 235.042 47.2854 236.762 53.4407C238.146 58.4201 239.545 63.6525 238.399 68.6915C237.853 71.008 236.794 73.1723 235.299 75.0247C233.805 76.8772 231.914 78.3705 229.765 79.3945" fill="#263238"/>
<path d="M177.45 45.3279C174.063 51.0736 172.728 57.7995 173.665 64.403C174.603 71.0065 177.756 77.0956 182.607 81.672C182.773 67.303 184.19 52.9756 186.843 38.8525" fill="#263238"/>
<path d="M176.139 65.0965C174.651 55.0261 178.648 41.4277 188.792 40.3708L212.945 41.2863C220.693 41.584 226.923 46.7346 229.089 54.1776C229.193 54.5497 229.133 54.0808 229.185 54.3711L240.41 114.734C241.284 119.488 240.245 124.395 237.518 128.386C234.791 132.377 230.598 135.129 225.851 136.043V136.043C221.148 136.948 216.278 135.974 212.285 133.33C208.292 130.687 205.494 126.584 204.49 121.901C203.44 117.071 202.212 111.37 202.212 111.399C202.212 111.429 189.068 111.987 182.912 95.9849C179.853 88.0209 177.792 76.2833 176.139 65.0965Z" fill="#9D6054"/>
<path d="M197.783 55.0186C194.863 56.6804 191.633 57.7266 188.293 58.0926C188.293 57.9735 190.452 57.4972 193.064 56.6487C195.677 55.8002 197.731 54.9144 197.783 55.0186Z" fill="#724A44"/>
<path d="M193.958 55.2271C192.146 56.2702 190.094 56.8266 188.003 56.8422C188.974 56.4945 189.969 56.2184 190.981 56.016C191.952 55.6804 192.947 55.4167 193.958 55.2271V55.2271Z" fill="#724A44"/>
<path d="M207.913 86.5249C207.809 86.5621 207.519 85.922 206.76 85.6392C206 85.3563 205.36 85.6392 205.308 85.4977C205.256 85.3563 205.412 85.3042 205.71 85.2C206.103 85.0736 206.528 85.0921 206.908 85.2521C207.295 85.3983 207.619 85.6747 207.824 86.0336C207.958 86.3165 207.951 86.5174 207.913 86.5249Z" fill="#724A44"/>
<path d="M182.607 77.2806C182.72 77.8356 183.046 78.3243 183.514 78.6426C183.983 78.961 184.557 79.0839 185.115 78.9851C185.39 78.9497 185.655 78.8594 185.895 78.7196C186.134 78.5797 186.343 78.3932 186.509 78.171C186.675 77.9488 186.794 77.6956 186.86 77.4263C186.927 77.157 186.938 76.8771 186.894 76.6033C186.782 76.049 186.458 75.5603 185.99 75.2418C185.523 74.9234 184.95 74.8003 184.393 74.8989C184.118 74.9353 183.853 75.0262 183.614 75.1662C183.375 75.3063 183.166 75.4927 182.999 75.7145C182.833 75.9363 182.713 76.189 182.645 76.458C182.578 76.7269 182.565 77.0066 182.607 77.2806V77.2806Z" fill="#263238"/>
<path d="M180.568 71.4974C180.888 71.7207 182.242 70.1875 184.535 69.7037C186.827 69.2199 188.74 70.0088 188.926 69.7037C189.023 69.5548 188.651 69.1082 187.802 68.7287C186.667 68.2575 185.415 68.1458 184.215 68.4086C183.026 68.6595 181.948 69.2795 181.133 70.18C180.545 70.8201 180.411 71.4007 180.568 71.4974Z" fill="#263238"/>
<path d="M203.142 72.7925C203.247 73.3609 203.573 73.8643 204.049 74.1923C204.525 74.5203 205.111 74.6459 205.68 74.5416C205.954 74.5053 206.219 74.4144 206.458 74.2742C206.697 74.1341 206.905 73.9475 207.071 73.7256C207.237 73.5037 207.357 73.2508 207.423 72.9819C207.49 72.713 207.502 72.4335 207.459 72.1599C207.347 71.6051 207.023 71.1158 206.556 70.7961C206.089 70.4764 205.516 70.3515 204.958 70.448C204.684 70.4801 204.418 70.5665 204.178 70.7023C203.938 70.8381 203.727 71.0205 203.557 71.2388C203.388 71.4572 203.264 71.707 203.193 71.9738C203.122 72.2406 203.104 72.5189 203.142 72.7925V72.7925Z" fill="#263238"/>
<path d="M203.127 67.1433C203.455 67.3666 204.809 65.8333 207.094 65.3496C209.379 64.8658 211.3 65.6622 211.493 65.3496C211.582 65.2007 211.21 64.7541 210.369 64.382C209.234 63.9034 207.978 63.789 206.774 64.0545C205.584 64.305 204.505 64.9281 203.693 65.8334C203.105 66.4958 202.971 67.0466 203.127 67.1433Z" fill="#263238"/>
<path d="M198.438 85.8625C198.438 85.7285 196.949 85.788 194.582 85.9815C193.987 86.0485 193.406 86.0485 193.228 85.6689C193.04 85.0806 193.04 84.4486 193.228 83.8603C193.473 82.327 193.734 80.7268 194.009 79.0447C195.059 72.2046 195.684 66.6297 195.409 66.5925C195.133 66.5553 194.061 72.0631 193.004 78.9032C192.756 80.5854 192.523 82.193 192.305 83.7263C192.087 84.5101 192.153 85.3457 192.491 86.0857C192.619 86.2734 192.788 86.4293 192.985 86.5415C193.183 86.6537 193.403 86.7193 193.63 86.7333C193.971 86.7499 194.314 86.7249 194.649 86.6588C197.016 86.2941 198.46 85.9964 198.438 85.8625Z" fill="#263238"/>
<path d="M222.911 100.786C222.911 100.786 219.934 113.312 203.053 115.292L202.212 111.399C209.961 109.846 217.127 106.172 222.911 100.786V100.786Z" fill="#724A44"/>
<path d="M200.574 91.1693C200.893 90.5288 201.37 89.9803 201.96 89.5753C202.55 89.1703 203.234 88.9222 203.946 88.8545C204.46 88.7921 204.982 88.8345 205.48 88.979C205.977 89.1236 206.44 89.3673 206.841 89.6956C207.225 90.0139 207.502 90.442 207.635 90.9223C207.768 91.4026 207.751 91.9122 207.586 92.3825C207.306 92.871 206.886 93.2645 206.381 93.5126C205.875 93.7606 205.307 93.8518 204.75 93.7743C203.587 93.624 202.465 93.2418 201.453 92.6504C201.156 92.5221 200.887 92.3404 200.656 92.1145C200.547 92.006 200.472 91.8678 200.44 91.717C200.408 91.5662 200.421 91.4094 200.477 91.266" fill="#724A44"/>
<path d="M205.502 86.0113C205.13 86.0708 205.651 88.5568 203.901 90.7673C202.152 92.9779 199.436 93.2682 199.503 93.618C199.503 93.7818 200.195 93.9753 201.319 93.7669C202.784 93.4859 204.103 92.6948 205.04 91.534C205.933 90.4204 206.358 89.0029 206.224 87.5817C206.075 86.5174 205.68 85.9666 205.502 86.0113Z" fill="#263238"/>
<path d="M201.14 60.5711C201.498 61.1442 203.716 60.3627 206.469 60.1171C209.223 59.8715 211.546 60.1171 211.784 59.5068C211.881 59.2091 211.382 58.7029 210.377 58.2861C209.053 57.7977 207.635 57.617 206.231 57.7575C204.827 57.8981 203.473 58.3563 202.272 59.0974C201.371 59.7003 200.984 60.2957 201.14 60.5711Z" fill="#263238"/>
<path d="M180.002 64.702C180.516 65.1337 181.975 64.2629 183.865 63.8312C185.756 63.3995 187.431 63.4367 187.691 62.8189C187.795 62.5212 187.431 62.0746 186.627 61.7099C185.563 61.3197 184.407 61.2529 183.305 61.5177C182.203 61.7826 181.204 62.3674 180.434 63.1985C179.876 63.9056 179.772 64.4862 180.002 64.702Z" fill="#263238"/>
<path d="M177.397 49.0047C177.873 46.2955 180.285 44.2114 182.942 43.4969C185.599 42.7824 188.442 43.2364 191.062 44.0849C202.145 47.665 210.124 57.7874 221.132 61.5908C223.841 62.5286 226.729 63.0794 229.178 64.568C231.626 66.0566 233.643 68.8403 233.033 71.6463C234.058 69.613 234.782 67.4418 235.184 65.2007C235.38 64.0782 235.333 62.9269 235.047 61.8241C234.761 60.7212 234.241 59.6925 233.524 58.8071C232.371 57.5269 230.644 56.7305 229.877 55.1824C229.207 53.8203 229.453 52.2052 229.073 50.7166C228.583 49.2434 227.752 47.907 226.647 46.8165C221.385 40.8621 214.82 35.9125 207.243 33.5679C202.283 31.9627 196.978 31.7439 191.903 32.9353C186.808 34.1498 182.318 37.1527 179.25 41.398C177.508 43.8914 175.662 46.489 177.389 49.0047" fill="#263238"/>
<path d="M239.33 74.1472C238.898 74.0355 238.853 72.9042 238.526 71.1179C238.369 70.123 238.039 69.1632 237.551 68.2821C237.419 68.0691 237.27 67.8674 237.104 67.6792C237.026 67.5893 236.941 67.5048 236.851 67.4261L236.494 67.0986C235.959 66.6243 235.39 66.1913 234.789 65.8036C234.296 65.46 233.735 65.2242 233.145 65.1114C232.951 65.1114 232.921 65.156 233.011 65.1635L232.452 65.4016L231.857 65.6845C231.086 66.0624 230.361 66.5296 229.698 67.0763C229.349 67.3591 229.006 67.6717 228.656 68.0067L228.396 68.2672L227.949 68.684C227.648 68.9492 227.333 69.1977 227.004 69.4283C225.669 70.3516 224.142 70.9622 222.538 71.2146C221.561 71.3657 220.564 71.3329 219.598 71.1179L219.196 71.0136L218.876 70.902C218.668 70.8276 218.445 70.7606 218.244 70.6713C217.83 70.4958 217.427 70.2945 217.038 70.0684C215.63 69.2096 214.387 68.1055 213.369 66.8084C212.379 65.61 211.634 64.4415 210.89 63.3771C208.233 59.5102 204.986 56.0844 201.266 53.2249C198.196 50.8626 194.852 48.8784 191.307 47.3151C188.986 46.1949 186.518 45.4081 183.976 44.978C182.197 44.7175 181.081 44.7845 180.924 44.3528C180.768 43.9211 181.669 43.0726 183.827 42.5442C185.986 42.0157 189.209 42.1571 192.759 43.1396C196.986 44.2696 200.996 46.0958 204.623 48.5432C209.116 51.545 212.993 55.3774 216.048 59.8343C216.792 60.9805 217.537 62.0151 218.192 62.8785C218.746 63.6196 219.417 64.2656 220.179 64.7913C220.329 64.8893 220.485 64.9764 220.648 65.0518C220.725 65.091 220.805 65.1258 220.886 65.156L220.998 65.2007H221.05C221.291 65.2743 221.545 65.2946 221.794 65.2602C222.546 65.1667 223.27 64.9129 223.915 64.5159C224.079 64.4192 224.228 64.3224 224.369 64.2256L224.57 64.0768L224.935 63.7642C225.434 63.3474 225.955 62.9529 226.491 62.5882C227.548 61.8695 228.691 61.2845 229.892 60.8465C230.175 60.7498 230.45 60.653 230.726 60.5711L231.128 60.4446L231.596 60.3181C232.501 60.0757 233.457 60.0964 234.35 60.3776C235.535 60.7638 236.621 61.4068 237.528 62.2607C238.247 62.9013 238.901 63.6119 239.479 64.3819C239.62 64.568 239.732 64.7094 239.88 64.9402C240.032 65.1539 240.169 65.3777 240.29 65.61C240.512 66.0284 240.694 66.467 240.833 66.92C241.218 68.2817 241.274 69.7154 240.997 71.103C240.521 73.3061 239.724 74.2588 239.33 74.1472Z" fill="#263238"/>
<path d="M230.056 67.0986C230.131 66.5851 238.102 61.6132 240.186 70.768C242.218 79.6996 232.84 79.8411 232.743 79.5954C232.646 79.3498 230.056 67.0986 230.056 67.0986Z" fill="#9D6054"/>
<path d="M234.753 75.5911C234.79 75.5911 234.931 75.6655 235.222 75.7251C235.627 75.7977 236.045 75.7125 236.39 75.4869C237.246 74.9287 237.708 73.254 237.388 71.6463C237.242 70.8778 236.924 70.1525 236.457 69.525C236.312 69.2647 236.105 69.0438 235.854 68.8817C235.604 68.7195 235.318 68.621 235.021 68.5947C234.832 68.5898 234.648 68.65 234.499 68.7653C234.35 68.8805 234.245 69.0437 234.202 69.2273C234.135 69.5027 234.202 69.6665 234.202 69.6888C234.202 69.7111 233.971 69.5846 233.964 69.205C233.964 68.9725 234.042 68.7469 234.187 68.5649C234.39 68.3262 234.679 68.1766 234.991 68.1481C235.373 68.137 235.752 68.2242 236.091 68.4015C236.43 68.5787 236.717 68.84 236.926 69.1603C237.479 69.8452 237.855 70.6555 238.02 71.5198C238.363 73.3284 237.827 75.2413 236.621 75.8739C236.395 75.9995 236.144 76.0721 235.886 76.0863C235.628 76.1004 235.371 76.0558 235.132 75.9558C234.82 75.7995 234.708 75.6134 234.753 75.5911Z" fill="#724A44"/>
<path d="M200.106 131.793C198.311 132.562 196.688 133.683 195.333 135.089C193.978 136.495 192.918 138.158 192.216 139.98C189.752 146.218 179.049 184.184 179.049 184.184L156.72 187.05L155.031 207.682C161.488 209.365 168.076 210.5 174.725 211.076C182.957 211.82 196.265 210.592 199.733 208.65C203.202 206.707 199.391 132.679 199.391 132.679L200.106 131.793Z" fill="#E0E0E0"/>
<path d="M204.631 126.159C211.702 134.19 230.279 117.905 238.549 104.961L211.947 229.892L207.407 228.783L204.631 126.159Z" fill="#455A64"/>
<path d="M204.08 120.688L202.368 128.801L196.004 134.562C195.922 145.161 201.654 166.329 200.224 170.571C198.193 176.637 197.381 182.919 199.815 191.761C201.058 196.287 208.583 228.783 208.583 228.783C208.583 228.783 206.424 313.819 206.663 314.95H223.96L207.072 201.817L206.424 130.952L204.08 120.688Z" fill="#E0E0E0"/>
<path d="M315.048 261.033C309.689 247.636 289.868 213.354 289.868 213.354C289.868 213.354 288.261 201.303 286.891 174.784C285.522 148.265 274.067 118.537 271.655 113.99C269.244 109.442 242.449 104.969 242.449 104.969L237.76 98.1434C237.76 98.1434 227.771 124.41 227.265 125.154C226.759 125.898 216.034 157.427 214.962 166.269C213.89 175.111 210.891 222.732 210.891 222.732L223.961 314.95H321.404C321.404 314.95 320.407 274.423 315.048 261.033Z" fill="#E0E0E0"/>
<path d="M224.787 257.699L273.255 252.228H273.427V252.4C274.804 267.233 276.404 284.844 278.19 303.667C278.384 305.744 278.57 307.798 278.763 309.845V310.046H278.622L239.658 310.939H239.524L239.487 310.805C235.17 294.996 231.545 281.71 228.992 272.369C227.697 267.717 226.677 264.048 225.97 261.532L225.144 258.674L224.913 257.93C224.854 257.766 224.816 257.692 224.824 257.692C224.871 257.765 224.91 257.842 224.943 257.922C225.002 258.086 225.092 258.324 225.196 258.667C225.412 259.307 225.702 260.259 226.074 261.51C226.819 264.003 227.875 267.665 229.193 272.324C231.82 281.636 235.497 294.907 239.821 310.723L239.65 310.596L278.614 309.659L278.428 309.874C278.245 307.83 278.054 305.771 277.855 303.697C276.128 284.866 274.513 267.226 273.151 252.422L273.33 252.571L224.787 257.699Z" fill="#263238"/>
<path d="M274.394 264.524C274.394 264.628 263.974 265.477 251.157 266.415C238.34 267.353 227.898 268.03 227.89 267.903C227.883 267.777 238.31 266.951 251.127 266.013C263.944 265.075 274.387 264.413 274.394 264.524Z" fill="#263238"/>
<path d="M289.511 213.212C289.337 213.361 289.145 213.486 288.938 213.584C288.559 213.8 287.985 214.09 287.271 214.418C285.396 215.266 283.427 215.89 281.406 216.279C279.385 216.645 277.334 216.815 275.28 216.785C274.491 216.785 273.859 216.748 273.42 216.71C273.191 216.713 272.963 216.683 272.742 216.621C273.583 216.535 274.428 216.498 275.273 216.509C277.307 216.46 279.335 216.256 281.339 215.899C283.333 215.509 285.284 214.928 287.167 214.165C287.932 213.808 288.714 213.49 289.511 213.212V213.212Z" fill="#263238"/>
<path d="M289.868 213.354C289.371 213.974 288.818 214.547 288.215 215.065C287.151 216.078 285.64 217.432 283.943 218.891L279.604 222.613C279.026 223.148 278.415 223.645 277.773 224.101C278.265 223.476 278.818 222.903 279.425 222.389C280.49 221.377 282.001 220.022 283.69 218.556L288.029 214.835C288.606 214.298 289.221 213.803 289.868 213.354Z" fill="#263238"/>
<path d="M256.754 285.432C254.886 284.754 252.847 284.486 251.12 285.476C250.448 285.917 249.916 286.539 249.584 287.27C249.252 288.001 249.134 288.812 249.244 289.607C249.497 291.207 250.284 292.673 251.477 293.768C252.202 294.594 253.207 295.124 254.298 295.256C255.531 295.206 256.695 294.671 257.536 293.768C258.483 292.966 259.219 291.943 259.679 290.791C259.902 290.208 259.988 289.582 259.929 288.961C259.871 288.341 259.671 287.741 259.345 287.21C258.541 286.02 257.067 285.499 255.69 285.052" fill="#E7D5A9"/>
<path d="M250.39 284.434C250.549 283.643 250.464 282.823 250.145 282.082C249.981 281.719 249.739 281.397 249.435 281.139C249.131 280.881 248.773 280.695 248.388 280.594C247.998 280.495 247.588 280.513 247.208 280.645C246.829 280.778 246.496 281.018 246.252 281.338C245.941 281.829 245.821 282.417 245.917 282.99C245.971 283.501 246.161 283.988 246.468 284.4C246.774 284.813 247.185 285.135 247.659 285.335C248.145 285.532 248.686 285.551 249.186 285.389C249.685 285.227 250.112 284.894 250.39 284.449" fill="#E7D5A9"/>
<path d="M258.712 284.821C259.514 284.804 260.293 284.545 260.945 284.077C261.27 283.844 261.54 283.541 261.734 283.191C261.929 282.841 262.043 282.452 262.069 282.052C262.085 281.651 261.983 281.253 261.777 280.908C261.571 280.563 261.269 280.286 260.907 280.11C260.36 279.905 259.758 279.905 259.21 280.11C258.723 280.267 258.285 280.551 257.944 280.933C257.602 281.315 257.369 281.781 257.268 282.283C257.172 282.801 257.262 283.335 257.522 283.793C257.782 284.251 258.196 284.602 258.689 284.784" fill="#E7D5A9"/>
<path d="M262.775 287.411C263.332 287.409 263.874 287.237 264.331 286.92C264.55 286.756 264.73 286.545 264.859 286.303C264.987 286.062 265.061 285.794 265.075 285.521C265.088 285.243 265.018 284.968 264.875 284.73C264.732 284.492 264.522 284.301 264.271 284.181C263.895 284.039 263.48 284.039 263.103 284.181C262.768 284.289 262.468 284.484 262.233 284.745C261.997 285.007 261.835 285.326 261.763 285.67C261.701 286.027 261.766 286.394 261.945 286.709C262.124 287.024 262.407 287.267 262.746 287.397" fill="#E7D5A9"/>
<path d="M254.149 283.459C255.031 283.1 255.784 282.483 256.308 281.688C256.564 281.289 256.728 280.839 256.789 280.369C256.849 279.899 256.804 279.421 256.658 278.971C256.499 278.525 256.213 278.135 255.837 277.848C255.46 277.562 255.008 277.39 254.536 277.356C253.848 277.367 253.188 277.632 252.683 278.1C252.216 278.486 251.861 278.99 251.653 279.559C251.445 280.128 251.392 280.742 251.5 281.338C251.628 281.943 251.963 282.485 252.446 282.872C252.929 283.258 253.531 283.466 254.149 283.459Z" fill="#E7D5A9"/>
<path d="M214.932 190.652C214.939 190.578 214.956 190.505 214.984 190.437C215.029 190.273 215.096 190.064 215.17 189.796C215.356 189.216 215.609 188.397 215.915 187.363C216.599 185.219 217.582 182.152 218.802 178.394L228.478 148.674C228.553 148.153 228.635 147.595 228.709 147.029C229.453 141.99 230.108 137.145 230.748 132.642V132.597H230.786L239.658 122.668L239.621 122.75L241.6 109.807C241.839 108.318 242.032 107.097 242.166 106.256C242.233 105.862 242.285 105.557 242.322 105.326C242.339 105.22 242.364 105.115 242.397 105.013C242.408 105.12 242.408 105.227 242.397 105.333C242.397 105.564 242.33 105.877 242.285 106.264C242.174 107.112 242.01 108.31 241.801 109.836C241.355 112.947 240.722 117.384 239.955 122.795V122.839L231.128 132.813L231.173 132.716C230.54 137.219 229.863 142.064 229.156 147.103C229.074 147.669 228.999 148.235 228.925 148.756C225.07 160.389 221.609 170.854 219.1 178.438C217.835 182.16 216.815 185.241 216.123 187.37C215.766 188.397 215.49 189.208 215.289 189.782C215.2 190.045 215.126 190.253 215.066 190.407C214.969 190.556 214.94 190.652 214.932 190.652Z" fill="#263238"/>
<path d="M206.625 199.889C206.616 199.84 206.616 199.789 206.625 199.74C206.625 199.621 206.573 199.48 206.543 199.301C206.474 198.884 206.385 198.319 206.276 197.604C206.045 196.116 205.725 193.95 205.323 191.292C204.541 185.889 203.462 178.394 202.234 169.864V169.812C202.502 167.676 202.785 165.458 203.068 163.188C203.566 159.31 204.043 155.581 204.482 152.09L204.534 152.239L198.981 146.478L198.922 146.411V146.329L201.252 133.594C201.542 132.106 201.773 130.885 201.929 130.037C202.011 129.65 202.078 129.337 202.122 129.099C202.137 128.992 202.165 128.887 202.204 128.786C202.216 128.893 202.216 129 202.204 129.106C202.167 129.352 202.122 129.664 202.063 130.052C201.921 130.907 201.72 132.113 201.475 133.624C200.939 136.735 200.18 141.119 199.242 146.389L199.205 146.247L204.757 151.986L204.817 152.046V152.135C204.378 155.626 203.901 159.362 203.417 163.24C203.127 165.473 202.844 167.706 202.576 169.857V169.812L205.554 191.263C205.911 193.927 206.194 196.078 206.395 197.597C206.477 198.341 206.551 198.884 206.596 199.301L206.648 199.74C206.638 199.84 206.63 199.889 206.625 199.889Z" fill="#263238"/>
<path d="M223.945 314.831C223.841 314.831 221.206 296.916 218.058 274.781C214.909 252.645 212.446 234.678 212.55 234.663C212.654 234.648 215.297 252.586 218.437 274.728C221.578 296.871 224.049 314.816 223.945 314.831Z" fill="#263238"/>
<path d="M162.511 217.202L177.568 212.87L186.931 234.663L165.957 234.008L162.511 218.087" fill="#9D6054"/>
<path d="M177.568 212.87L189.812 241.376C189.812 241.376 251.023 223.908 255.399 219.003C259.776 214.098 269.035 169.879 270.613 161.282C272.191 152.686 273.932 117.867 266.586 112.293C259.24 106.718 252.072 107.938 245.076 115.634C239.412 121.864 230.19 157.531 226.878 170.854C226.067 174.133 225.85 177.531 226.238 180.887L226.885 186.462C226.885 186.462 221.117 191.709 220.767 196.607L177.568 212.87Z" fill="#E0E0E0"/>
<path d="M236.941 134.651C236.941 134.651 236.867 134.964 236.71 135.567C236.554 136.17 236.301 137.055 235.966 138.246C235.319 140.598 234.373 144.059 233.153 148.503L228.687 164.684C228.248 166.254 227.801 167.884 227.332 169.566C226.815 171.28 226.469 173.04 226.298 174.821C226.104 176.704 226.104 178.602 226.298 180.485C226.531 182.43 226.764 184.415 226.997 186.44V186.514L226.945 186.566C225.523 187.912 224.253 189.41 223.157 191.032C221.944 192.685 221.161 194.613 220.879 196.644V196.741L220.79 196.778L177.62 213.071L177.725 212.825L189.976 241.324L189.745 241.22C194.791 239.732 200.165 238.198 205.532 236.576C216.041 233.42 226.283 230.249 236.085 226.9C240.983 225.225 245.761 223.55 250.353 221.585C251.492 221.102 252.586 220.573 253.68 219.985C254.213 219.702 254.713 219.36 255.169 218.966C255.372 218.755 255.552 218.523 255.705 218.273C255.854 218.013 256.01 217.76 256.144 217.492C257.157 215.323 258.013 213.084 258.704 210.793C260.134 206.26 261.324 201.78 262.426 197.396C263.528 193.012 264.547 188.777 265.492 184.653C267.376 176.406 269.043 168.703 270.405 161.647C271.551 155.28 272.371 148.858 272.861 142.407C273.276 137.54 273.333 132.649 273.032 127.774C272.72 123.77 272.02 120.688 271.075 118.79C270.644 117.802 269.995 116.924 269.177 116.222L269.795 116.758C269.981 116.959 270.189 117.227 270.442 117.54C270.706 117.927 270.942 118.333 271.149 118.753C272.117 120.651 272.846 123.755 273.181 127.759C273.512 132.642 273.477 137.544 273.077 142.422C272.61 148.882 271.807 155.314 270.673 161.692C269.326 168.763 267.696 176.473 265.805 184.765C264.867 188.888 263.862 193.146 262.761 197.522C261.659 201.899 260.461 206.379 259.039 210.92C258.347 213.236 257.489 215.5 256.472 217.693C256.33 217.968 256.166 218.236 256.018 218.504C255.847 218.771 255.65 219.021 255.43 219.248C254.958 219.67 254.438 220.035 253.881 220.335C252.795 220.931 251.649 221.466 250.525 221.958C245.932 223.93 241.132 225.612 236.234 227.294C226.424 230.621 216.183 233.799 205.666 236.97C200.262 238.593 194.918 240.163 189.872 241.607L189.708 241.659L189.641 241.503L177.397 212.981L177.323 212.803L177.509 212.736L220.678 196.495L220.574 196.637C220.861 194.554 221.664 192.576 222.911 190.883C224.028 189.262 225.316 187.764 226.752 186.417L226.707 186.544C226.479 184.504 226.251 182.52 226.022 180.589C225.829 178.689 225.829 176.774 226.022 174.873C226.202 173.076 226.558 171.301 227.087 169.574L228.449 164.699C230.213 158.409 231.731 152.976 232.974 148.532L235.862 138.298C236.189 137.13 236.45 136.244 236.606 135.634C236.763 135.023 236.941 134.651 236.941 134.651Z" fill="#263238"/>
<path d="M228.753 203.134C227.809 201.639 226.65 200.289 225.315 199.13C223.896 198.069 222.325 197.229 220.655 196.637C221.188 196.652 221.713 196.765 222.203 196.972C224.655 197.815 226.737 199.487 228.091 201.698C228.395 202.133 228.62 202.62 228.753 203.134Z" fill="#263238"/>
<path d="M242.449 191.568C242.389 191.613 241.831 190.742 240.64 189.61C239.095 188.128 237.219 187.036 235.167 186.424C233.116 185.811 230.948 185.697 228.843 186.09C227.228 186.388 226.283 186.834 226.253 186.745C226.451 186.601 226.669 186.489 226.9 186.41C227.513 186.162 228.146 185.965 228.791 185.822C230.938 185.345 233.171 185.424 235.278 186.052C237.386 186.68 239.298 187.836 240.834 189.409C241.298 189.882 241.719 190.395 242.092 190.943C242.239 191.134 242.359 191.344 242.449 191.568V191.568Z" fill="#263238"/>
<path d="M176.392 243.803C168.071 243.803 156.541 240.922 142.109 235.236C131.429 231.023 123.04 226.751 122.951 226.714L124.306 224.057C124.633 224.228 157.368 240.826 176.407 240.826C183.924 240.826 189.745 237.193 193.697 230.033C195.579 226.55 196.864 222.776 197.5 218.869C197.701 217.678 202.189 190.905 203.73 183.76C204.534 180.039 206.707 173.921 208.761 168.011C210.667 162.6 212.632 157.01 213.026 154.613C213.838 149.753 213.25 139.132 213.25 139.028L216.227 138.857C216.227 139.311 216.837 149.917 215.974 155.097C215.535 157.739 213.614 163.203 211.582 168.978C209.55 174.754 207.414 180.828 206.648 184.371C205.159 191.449 200.5 219.01 200.455 219.293C200.41 219.576 197.076 243.803 176.392 243.803Z" fill="#E7D5A9"/>
<g opacity="0.4">
<path opacity="0.4" d="M176.392 243.803C168.071 243.803 156.541 240.922 142.109 235.236C131.429 231.023 123.04 226.751 122.951 226.714L124.306 224.057C124.633 224.228 157.368 240.826 176.407 240.826C183.924 240.826 189.745 237.193 193.697 230.033C195.579 226.55 196.864 222.776 197.5 218.869C197.701 217.678 202.189 190.905 203.73 183.76C204.534 180.039 206.707 173.921 208.761 168.011C210.667 162.6 212.632 157.01 213.026 154.613C213.838 149.753 213.25 139.132 213.25 139.028L216.227 138.857C216.227 139.311 216.837 149.917 215.974 155.097C215.535 157.739 213.614 163.203 211.582 168.978C209.55 174.754 207.414 180.828 206.648 184.371C205.159 191.449 200.5 219.01 200.455 219.293C200.41 219.576 197.076 243.803 176.392 243.803Z" fill="black"/>
</g>
<path d="M212.736 139.958C210.88 139.983 209.089 139.277 207.749 137.993C202.621 132.91 197.158 111.794 196.927 110.901L198.364 110.529C198.423 110.744 203.961 132.113 208.784 136.936C209.436 137.547 210.222 137.996 211.079 138.248C211.936 138.5 212.84 138.548 213.719 138.388C216.145 138.008 218.311 136.296 219.673 133.691C223.633 126.062 234.425 73.9685 234.559 73.4401L236.048 73.7452C235.601 75.8963 225.106 126.591 221.05 134.376C219.48 137.405 216.912 139.407 214.016 139.861C213.593 139.93 213.165 139.962 212.736 139.958V139.958Z" fill="#E0E0E0"/>
<path d="M233.963 77.7273C234.068 75.6358 233.562 73.9388 233.219 71.8771C233.07 71.0062 233.346 69.5251 234.075 69.0189C234.805 68.5128 235.921 69.1306 236.234 69.9865C236.493 70.9878 236.541 72.0322 236.375 73.053C236.04 75.5241 235.34 76.2461 234.939 77.7273" fill="#E0E0E0"/>
<path d="M213.473 140.375H213.011C211.374 140.309 209.784 139.804 208.408 138.914C207.032 138.024 205.92 136.78 205.189 135.314C203.306 131.592 200.85 126.576 199.845 123.829L202.636 122.809C203.38 124.841 205.233 128.809 207.846 133.974C208.341 134.97 209.095 135.815 210.029 136.42C210.962 137.025 212.041 137.368 213.153 137.413C214.245 137.477 215.335 137.245 216.307 136.742C217.278 136.239 218.097 135.483 218.676 134.555L218.757 134.421C218.817 134.309 219.077 133.676 219.993 131.056L220.097 130.759C220.633 129.27 221.757 125.891 223.26 120.338L226.133 121.083C224.608 126.762 223.454 130.215 222.896 131.763L222.799 132.046C221.668 135.262 221.467 135.708 221.31 135.954L221.191 136.147C220.37 137.45 219.23 138.522 217.88 139.261C216.529 140.001 215.013 140.384 213.473 140.375V140.375Z" fill="#E7D5A9"/>
<g opacity="0.4">
<path opacity="0.4" d="M213.473 140.375H213.011C211.374 140.309 209.784 139.804 208.408 138.914C207.032 138.024 205.92 136.78 205.189 135.314C203.306 131.592 200.85 126.576 199.845 123.829L202.636 122.809C203.38 124.841 205.233 128.809 207.846 133.974C208.341 134.97 209.095 135.815 210.029 136.42C210.962 137.025 212.041 137.368 213.153 137.413C214.245 137.477 215.335 137.245 216.307 136.742C217.278 136.239 218.097 135.483 218.676 134.555L218.757 134.421C218.817 134.309 219.077 133.676 219.993 131.056L220.097 130.759C220.633 129.27 221.757 125.891 223.26 120.338L226.133 121.083C224.608 126.762 223.454 130.215 222.896 131.763L222.799 132.046C221.668 135.262 221.467 135.708 221.31 135.954L221.191 136.147C220.37 137.45 219.23 138.522 217.88 139.261C216.529 140.001 215.013 140.384 213.473 140.375V140.375Z" fill="black"/>
</g>
<path d="M118.27 229.892C122.249 229.892 125.475 226.666 125.475 222.687C125.475 218.708 122.249 215.482 118.27 215.482C114.291 215.482 111.065 218.708 111.065 222.687C111.065 226.666 114.291 229.892 118.27 229.892Z" fill="#E0E0E0"/>
<path d="M118.672 227.205C120.937 227.205 122.773 225.369 122.773 223.104C122.773 220.839 120.937 219.003 118.672 219.003C116.407 219.003 114.571 220.839 114.571 223.104C114.571 225.369 116.407 227.205 118.672 227.205Z" fill="#263238"/>
<path d="M113.73 229.892C113.73 229.892 112.152 226.17 113.73 224.816C115.308 223.461 131.816 219.003 131.816 219.003C131.816 219.003 143.457 215.639 144.7 215.482C145.943 215.326 161.075 216.338 161.075 216.338C161.075 216.338 169.664 213.971 170.907 213.971C172.15 213.971 170.341 221.876 170.118 224.481C169.894 227.086 168.197 228.641 169.775 229.892C171.353 231.142 175.551 234.663 175.551 234.663C175.551 234.663 171.13 235.891 168.108 235.556C166.313 235.365 164.557 234.906 162.898 234.194C162.898 234.194 156.683 238.831 153.289 239.508C149.895 240.186 138.604 243.914 136.341 243.58C134.079 243.245 132.389 240.186 132.389 240.186C132.389 240.186 127.075 240.975 126.055 238.831C125.466 237.604 125.012 236.316 124.701 234.99L126.852 233.628C126.852 233.628 124.023 234.425 122.78 232.385C122.07 231.298 121.607 230.069 121.426 228.783C121.426 228.783 115.62 230.45 113.73 229.892Z" fill="#455A64"/>
<path d="M198.557 161.915C198.555 162.061 198.532 162.207 198.49 162.347C198.426 162.664 198.337 163.074 198.222 163.575C198.103 164.103 197.954 164.751 197.821 165.51C197.687 166.269 197.493 167.133 197.374 168.1C197.255 169.068 197.069 170.11 196.965 171.249C196.86 172.387 196.756 173.601 196.667 174.881C196.379 180.45 196.807 186.033 197.94 191.493C198.222 192.751 198.475 193.942 198.788 195.044C199.101 196.145 199.384 197.165 199.674 198.095C199.964 199.026 200.262 199.852 200.515 200.581C200.768 201.311 200.999 201.929 201.207 202.435C201.415 202.941 201.542 203.298 201.654 203.603C201.719 203.737 201.764 203.88 201.788 204.027C201.71 203.902 201.643 203.77 201.587 203.633L201.066 202.494C200.842 201.996 200.574 201.385 200.321 200.656C200.068 199.926 199.718 199.115 199.428 198.177C199.138 197.239 198.781 196.235 198.49 195.126C198.2 194.017 197.902 192.826 197.612 191.568C197.034 188.827 196.629 186.053 196.399 183.262C196.201 180.467 196.176 177.663 196.324 174.866C196.421 173.578 196.496 172.35 196.659 171.211C196.823 170.073 196.95 169.016 197.113 168.055C197.277 167.095 197.471 166.224 197.627 165.465C197.783 164.706 197.947 164.066 198.096 163.538L198.431 162.324C198.455 162.183 198.497 162.045 198.557 161.915V161.915Z" fill="#263238"/>
</svg>
