<svg width="40" height="40" viewBox="0 0 40 40" fill="none" xmlns="http://www.w3.org/2000/svg">
<g clip-path="url(#clip0_622_5388)">
<path d="M39.3829 5.54922L34.3829 0.549225C33.6505 -0.183197 32.4642 -0.183197 31.7314 0.549225C30.9985 1.28165 30.9989 2.46798 31.7314 3.20079L32.9767 4.37501L30.0001 7.34844L25.7009 3.04922C24.9685 2.3168 23.7821 2.3168 23.0493 3.04922C22.3878 3.71071 22.3561 4.72657 22.8894 5.46016L34.5378 17.1086C34.8673 17.3516 35.2423 17.5 35.6251 17.5C36.1049 17.5 36.5845 17.3169 36.9509 16.9507C37.6833 16.2183 37.6833 15.032 36.9509 14.2991L32.6485 10L35.6251 7.02657L36.7993 8.20079C37.1642 8.57032 37.6485 8.75001 38.1251 8.75001C38.6017 8.75001 39.0845 8.56688 39.4509 8.20071C40.1798 7.46798 40.1798 6.28204 39.3829 5.54922ZM16.3126 12.0391L20.8876 16.6141C21.3759 17.1024 21.3759 17.8938 20.8876 18.3813C20.6407 18.625 20.3204 18.75 20.0001 18.75C19.6798 18.75 19.3595 18.625 19.1173 18.3828L14.5392 13.8125L11.3126 17.0391L15.8876 21.6141C16.3759 22.1024 16.3759 22.8938 15.8876 23.3813C15.6407 23.625 15.3204 23.75 15.0001 23.75C14.6798 23.75 14.3595 23.625 14.1173 23.3828L9.53916 18.8125L6.46494 21.8828C5.52666 22.8203 5.0001 24.0938 5.0001 25.4219V32.35L0.549316 36.8008C-0.183105 37.5332 -0.183105 38.7195 0.549316 39.4524C0.915723 39.8203 1.39541 40 1.8751 40C2.35479 40 2.83447 39.8169 3.20088 39.4507L7.65166 35H14.5806C15.9063 35 17.1782 34.4731 18.1165 33.5352L32.7728 18.8789L21.1243 7.23048L16.3126 12.0391Z" fill="black"/>
</g>
<defs>
<clipPath id="clip0_622_5388">
<rect width="40" height="40" fill="white"/>
</clipPath>
</defs>
</svg>
