<svg width="551" height="410" viewBox="0 0 551 410" fill="none" xmlns="http://www.w3.org/2000/svg">
<path d="M550.247 360.302H0V360.577H550.247V360.302Z" fill="#EBEBEB"/>
<path d="M495.112 378.009H458.664V378.284H495.112V378.009Z" fill="#EBEBEB"/>
<path d="M364.506 381.002H354.942V381.277H364.506V381.002Z" fill="#EBEBEB"/>
<path d="M457.563 367.796H436.445V368.071H457.563V367.796Z" fill="#EBEBEB"/>
<path d="M105.262 369.645H57.7319V369.92H105.262V369.645Z" fill="#EBEBEB"/>
<path d="M122.034 369.645H115.068V369.92H122.034V369.645Z" fill="#EBEBEB"/>
<path d="M247.776 374.289H144.682V374.564H247.776V374.289Z" fill="#EBEBEB"/>
<path d="M260.817 311.22H48.3226C46.658 311.217 45.0625 310.553 43.8864 309.375C42.7103 308.197 42.0498 306.6 42.0498 304.936V6.22879C42.0643 4.57368 42.7312 2.99112 43.9057 1.82486C45.0802 0.658599 46.6674 0.0028353 48.3226 0H260.817C262.484 0 264.082 0.662044 265.26 1.84049C266.439 3.01893 267.101 4.61725 267.101 6.28382V304.936C267.101 306.602 266.439 308.201 265.26 309.379C264.082 310.558 262.484 311.22 260.817 311.22V311.22ZM48.3226 0.2201C46.7309 0.223015 45.2054 0.857356 44.0809 1.98389C42.9565 3.11042 42.3249 4.63709 42.3249 6.22879V304.936C42.3249 306.528 42.9565 308.054 44.0809 309.181C45.2054 310.307 46.7309 310.942 48.3226 310.945H260.817C262.41 310.942 263.936 310.308 265.063 309.181C266.189 308.055 266.823 306.529 266.826 304.936V6.22879C266.823 4.63608 266.189 3.10944 265.063 1.98322C263.936 0.856999 262.41 0.223009 260.817 0.2201H48.3226Z" fill="#EBEBEB"/>
<path d="M498.865 311.22H286.359C284.694 311.217 283.097 310.554 281.919 309.376C280.742 308.198 280.079 306.601 280.076 304.936V6.22879C280.093 4.57268 280.762 2.99013 281.939 1.82417C283.115 0.658215 284.703 0.00280438 286.359 0H498.865C500.518 0.00572752 502.103 0.662771 503.275 1.82872C504.447 2.99467 505.112 4.57558 505.127 6.22879V304.936C505.127 306.599 504.468 308.194 503.294 309.371C502.12 310.549 500.528 311.214 498.865 311.22V311.22ZM286.359 0.2201C284.767 0.223009 283.24 0.856999 282.114 1.98322C280.988 3.10944 280.354 4.63608 280.351 6.22879V304.936C280.354 306.529 280.988 308.055 282.114 309.181C283.24 310.308 284.767 310.942 286.359 310.945H498.865C500.458 310.942 501.984 310.308 503.11 309.181C504.237 308.055 504.871 306.529 504.874 304.936V6.22879C504.871 4.63608 504.237 3.10944 503.11 1.98322C501.984 0.856999 500.458 0.223009 498.865 0.2201H286.359Z" fill="#EBEBEB"/>
<path d="M60.9673 356.758H156.072V278.623H60.9673L60.9673 356.758Z" fill="#E0E0E0"/>
<path d="M60.329 280.494V354.887H56.5103V358.97H160.551V354.887H157.701V280.494H160.551V276.411H56.5103V280.494H60.329ZM135.845 354.887H129.374V280.494H135.845V354.887ZM138.816 280.494H145.265V354.887H138.794L138.816 280.494ZM126.403 354.887H119.954V280.494H126.414L126.403 354.887ZM116.971 354.887H110.5V280.494H116.971V354.887ZM107.529 354.887H101.058V280.494H107.529V354.887ZM98.0869 354.887H91.616V280.494H98.0869V354.887ZM88.6447 354.887H82.1848V280.494H88.6447V354.887ZM79.2134 354.887H72.7425V280.494H79.2355L79.2134 354.887ZM154.718 354.887H148.258V280.494H154.718V354.887ZM63.3003 280.494H69.7712V354.887H63.3003V280.494Z" fill="#EBEBEB"/>
<path d="M60.9673 273.825H156.072V195.69H60.9673L60.9673 273.825Z" fill="#E0E0E0"/>
<path d="M60.329 197.561V271.954H56.5103V276.037H160.551V271.954H157.701V197.561H160.551V193.478H56.5103V197.561H60.329ZM135.845 271.954H129.374V197.561H135.845V271.954ZM138.816 197.561H145.265V271.954H138.794L138.816 197.561ZM126.403 271.954H119.954V197.561H126.414L126.403 271.954ZM116.971 271.954H110.5V197.561H116.971V271.954ZM107.529 271.954H101.058V197.561H107.529V271.954ZM98.0869 271.954H91.616V197.561H98.0869V271.954ZM88.6447 271.954H82.1848V197.561H88.6447V271.954ZM79.2134 271.954H72.7425V197.561H79.2355L79.2134 271.954ZM154.718 271.954H148.258V197.561H154.718V271.954ZM63.3003 197.561H69.7712V271.954H63.3003V197.561Z" fill="#F0F0F0"/>
<path d="M60.9673 191.409H156.072V113.274L60.9673 113.274L60.9673 191.409Z" fill="#E6E6E6"/>
<path d="M60.329 115.145V189.538H56.5103V193.621H160.551V189.538H157.701V115.145H160.551V111.062H56.5103V115.145H60.329ZM135.845 189.538H129.374V115.145H135.845V189.538ZM138.816 115.145H145.265V189.538H138.794L138.816 115.145ZM126.403 189.538H119.954V115.145H126.414L126.403 189.538ZM116.971 189.538H110.5V115.145H116.971V189.538ZM107.529 189.538H101.058V115.145H107.529V189.538ZM98.0869 189.538H91.616V115.145H98.0869V189.538ZM88.6447 189.538H82.1848V115.145H88.6447V189.538ZM79.2134 189.538H72.7425V115.145H79.2355L79.2134 189.538ZM154.718 189.538H148.258V115.145H154.718V189.538ZM63.3003 115.145H69.7712V189.538H63.3003V115.145Z" fill="#F5F5F5"/>
<path d="M176.013 356.758H271.118V278.623H176.013V356.758Z" fill="#E0E0E0"/>
<path d="M175.375 280.494V354.887H171.556V358.97H275.586V354.887H272.736V280.494H275.586V276.411H171.556V280.494H175.375ZM250.913 354.887H244.42V280.494H250.913V354.887ZM253.884 280.494H260.355V354.887H253.884V280.494ZM241.471 354.887H235V280.494H241.471V354.887ZM232.028 354.887H225.601V280.494H232.061L232.028 354.887ZM222.597 354.887H216.126V280.494H222.597V354.887ZM213.155 354.887H206.684V280.494H213.155V354.887ZM203.713 354.887H197.242V280.494H203.713V354.887ZM194.27 354.887H187.81V280.494H194.27V354.887ZM269.786 354.887H263.326V280.494H269.786V354.887ZM178.368 280.494H184.839V354.887H178.368V280.494Z" fill="#EBEBEB"/>
<path d="M176.013 273.825H271.118V195.69H176.013V273.825Z" fill="#E0E0E0"/>
<path d="M175.375 197.561V271.954H171.556V276.037H275.586V271.954H272.736V197.561H275.586V193.478H171.556V197.561H175.375ZM250.913 271.954H244.42V197.561H250.913V271.954ZM253.884 197.561H260.355V271.954H253.884V197.561ZM241.471 271.954H235V197.561H241.471V271.954ZM232.028 271.954H225.601V197.561H232.061L232.028 271.954ZM222.597 271.954H216.126V197.561H222.597V271.954ZM213.155 271.954H206.684V197.561H213.155V271.954ZM203.713 271.954H197.242V197.561H203.713V271.954ZM194.27 271.954H187.81V197.561H194.27V271.954ZM269.786 271.954H263.326V197.561H269.786V271.954ZM178.368 197.561H184.839V271.954H178.368V197.561Z" fill="#F0F0F0"/>
<path d="M176.013 191.409H271.118V113.274L176.013 113.274V191.409Z" fill="#E6E6E6"/>
<path d="M175.375 115.145V189.538H171.556V193.621H275.586V189.538H272.736V115.145H275.586V111.062H171.556V115.145H175.375ZM250.913 189.538H244.42V115.145H250.913V189.538ZM253.884 115.145H260.355V189.538H253.884V115.145ZM241.471 189.538H235V115.145H241.471V189.538ZM232.028 189.538H225.601V115.145H232.061L232.028 189.538ZM222.597 189.538H216.126V115.145H222.597V189.538ZM213.155 189.538H206.684V115.145H213.155V189.538ZM203.713 189.538H197.242V115.145H203.713V189.538ZM194.27 189.538H187.81V115.145H194.27V189.538ZM269.786 189.538H263.326V115.145H269.786V189.538ZM178.368 115.145H184.839V189.538H178.368V115.145Z" fill="#F5F5F5"/>
<path d="M290.978 58.541C301.099 48.4199 301.099 32.0104 290.978 21.8894C280.857 11.7683 264.447 11.7683 254.326 21.8894C244.205 32.0104 244.205 48.4199 254.326 58.541C264.447 68.6621 280.857 68.6621 290.978 58.541Z" fill="#E0E0E0"/>
<path d="M284.748 58.635C294.923 51.9512 297.753 38.2844 291.07 28.1093C284.386 17.9343 270.719 15.104 260.544 21.7878C250.369 28.4716 247.539 42.1384 254.222 52.3134C260.906 62.4885 274.573 65.3188 284.748 58.635Z" fill="#F0F0F0"/>
<path d="M273.693 25.0913V40.4982L283.905 34.7206" fill="#F0F0F0"/>
<path d="M273.693 25.0913V40.4982L283.905 34.7206" stroke="#E0E0E0" stroke-width="2" stroke-linecap="round" stroke-linejoin="round"/>
<path d="M166.681 16.1443H115.783V83.5605H166.681V16.1443Z" fill="#EBEBEB"/>
<path d="M164.513 18.2242H117.951V81.4806H164.513V18.2242Z" fill="#F5F5F5"/>
<path d="M147.565 58.8324C148.457 54.9036 156.886 53.0658 159.671 56.2903C162.455 59.5147 159.517 65.4904 154.267 65.7215C149.315 65.9416 146.212 64.7751 147.565 58.8324Z" fill="#EBEBEB"/>
<path d="M152.671 52.1084C150.162 52.1084 149.37 46.1547 151.395 45.6375C153.42 45.1203 156.017 52.0534 152.671 52.1084Z" fill="#EBEBEB"/>
<path d="M157.822 52.1084C156.919 51.6352 155.071 46.5399 157.305 46.2208C159.539 45.9016 162.279 54.4524 157.822 52.1084Z" fill="#EBEBEB"/>
<path d="M146.938 54.6395C147.466 54.3094 148.303 49.4232 145.133 48.8619C141.964 48.3007 143.934 56.5214 146.938 54.6395Z" fill="#EBEBEB"/>
<path d="M145.485 60.8903C146.586 59.1956 145.045 56.1802 142.987 56.4883C140.929 56.7965 143.516 63.9827 145.485 60.8903Z" fill="#EBEBEB"/>
<path d="M130.122 57.6218C130.529 55.806 134.436 54.9586 135.757 56.4443C137.077 57.93 135.68 60.7032 133.248 60.8463C130.816 60.9893 129.495 60.3731 130.122 57.6218Z" fill="#EBEBEB"/>
<path d="M132.489 54.5075C131.322 54.5075 130.981 51.7452 131.894 51.5141C132.808 51.283 134.04 54.4855 132.489 54.5075Z" fill="#EBEBEB"/>
<path d="M134.865 54.5075C134.458 54.2874 133.6 51.9323 134.634 51.7783C135.669 51.6242 136.934 55.597 134.865 54.5075Z" fill="#EBEBEB"/>
<path d="M129.858 55.685C130.111 55.5309 130.496 53.2639 129.033 52.9998C127.569 52.7357 128.439 56.5544 129.858 55.685Z" fill="#EBEBEB"/>
<path d="M129.154 58.5793C129.66 57.7869 128.956 56.3783 128.053 56.5103C127.151 56.6424 128.241 60.0099 129.154 58.5793Z" fill="#EBEBEB"/>
<path d="M134.425 42.1599C134.832 40.3331 138.739 39.4857 140.06 40.9824C141.38 42.4791 139.983 45.2413 137.551 45.3844C135.119 45.5274 133.798 44.9111 134.425 42.1599Z" fill="#EBEBEB"/>
<path d="M136.791 39.0345C135.625 39.0345 135.284 36.2833 136.197 36.0412C137.111 35.7991 138.343 39.0125 136.791 39.0345Z" fill="#EBEBEB"/>
<path d="M139.168 39.0345C138.761 38.8144 137.903 36.4594 138.937 36.3163C139.972 36.1732 141.237 40.124 139.168 39.0345Z" fill="#EBEBEB"/>
<path d="M134.128 40.212C134.381 40.058 134.766 37.7909 133.303 37.5378C131.839 37.2847 132.742 41.0814 134.128 40.212Z" fill="#EBEBEB"/>
<path d="M133.457 43.1064C133.963 42.325 133.259 40.9054 132.356 41.0484C131.454 41.1915 132.543 44.537 133.457 43.1064Z" fill="#EBEBEB"/>
<path d="M150.272 37.4168C150.69 35.59 154.597 34.7426 155.907 36.2393C157.216 37.7359 155.841 40.4982 153.409 40.6413C150.977 40.7843 149.667 40.124 150.272 37.4168Z" fill="#EBEBEB"/>
<path d="M152.638 34.2474C151.472 34.2474 151.131 31.4961 152.044 31.254C152.958 31.0119 154.19 34.2254 152.638 34.2474Z" fill="#EBEBEB"/>
<path d="M155.026 34.2474C154.608 34.0273 153.75 31.6722 154.784 31.5291C155.819 31.3861 157.084 35.3369 155.026 34.2474Z" fill="#EBEBEB"/>
<path d="M149.986 35.4249C150.228 35.2708 150.614 33.0038 149.15 32.7507C147.686 32.4976 148.567 36.3163 149.986 35.4249Z" fill="#EBEBEB"/>
<path d="M149.315 38.3192C149.81 37.5379 149.106 36.1182 148.16 36.2613C147.213 36.4043 148.402 39.7498 149.315 38.3192Z" fill="#EBEBEB"/>
<path d="M401.383 67.0861H334.803V155.28H401.383V67.0861Z" fill="#F5F5F5"/>
<path d="M398.555 69.8043H337.643V152.55H398.555V69.8043Z" fill="#E0E0E0"/>
<path d="M351.806 149.667H361.853V115.299C359.189 115.299 356.633 116.357 354.749 118.242C352.865 120.126 351.806 122.681 351.806 125.346V149.667Z" fill="#EBEBEB"/>
<path d="M349.011 149.667H361.853V146.729C361.853 146.079 361.725 145.436 361.476 144.835C361.227 144.235 360.862 143.69 360.402 143.231C359.942 142.772 359.396 142.408 358.796 142.161C358.195 141.913 357.551 141.786 356.901 141.788C354.81 141.788 352.805 142.617 351.326 144.095C349.846 145.572 349.014 147.576 349.011 149.667V149.667Z" fill="#F5F5F5"/>
<path d="M380.826 111.183H358.013V148.633H380.826V111.183Z" fill="#F5F5F5"/>
<path d="M385.712 148.633H375.94V115.189C377.223 115.187 378.495 115.439 379.681 115.93C380.867 116.42 381.945 117.14 382.853 118.048C383.761 118.955 384.481 120.033 384.971 121.22C385.462 122.406 385.714 123.677 385.712 124.961V148.633Z" fill="#EBEBEB"/>
<path d="M389.212 149.667H376.369V146.729C376.369 146.079 376.497 145.436 376.746 144.835C376.995 144.235 377.36 143.69 377.82 143.231C378.28 142.772 378.826 142.408 379.427 142.161C380.028 141.913 380.671 141.786 381.321 141.788C383.411 141.788 385.415 142.618 386.893 144.095C388.371 145.573 389.201 147.577 389.201 149.667H389.212Z" fill="#F5F5F5"/>
<path d="M356.406 88.0395C353.347 85.6844 351.212 80.7102 349.473 74.6025C358.145 75.5379 364.187 78.2451 366.266 83.6155L356.406 88.0395Z" fill="#F0F0F0"/>
<path d="M351.2 76.1982C352.012 80.1271 353.802 83.7876 356.406 86.84L361.336 83.6266L351.2 76.1982Z" fill="#E0E0E0"/>
<path d="M347.47 103.92C347.47 98.2961 354.128 87.6323 358.475 84.771C362.822 81.9097 373.342 80.9083 377.513 84.0557C381.684 87.2031 384.248 99.7818 384.248 104.635C384.248 109.488 383.148 110.247 380.628 112.933C378.107 115.618 367.917 113.791 362.007 112.933C356.098 112.074 347.47 109.554 347.47 103.92Z" fill="#F0F0F0"/>
<path d="M369.183 95.3468C369.403 96.7004 369.028 97.8889 368.357 97.9989C367.686 98.109 366.949 97.1075 366.728 95.7429C366.508 94.3783 366.883 93.2008 367.554 93.0907C368.225 92.9807 368.962 93.9931 369.183 95.3468Z" fill="#E0E0E0"/>
<path d="M356.659 94.2023C356.879 95.5669 356.505 96.7554 355.823 96.8655C355.14 96.9755 354.414 95.9631 354.194 94.5985C353.974 93.2338 354.348 92.0563 355.03 91.9463C355.713 91.8362 356.439 92.8487 356.659 94.2023Z" fill="#E0E0E0"/>
<path d="M352.147 98.4282L356.406 99.4186L354.139 102.214L352.147 98.4282Z" fill="#E0E0E0"/>
<path d="M355.933 103.854C355.371 103.92 357.969 108.344 355.933 107.969C356.227 108.152 356.563 108.258 356.909 108.277C357.255 108.297 357.601 108.229 357.914 108.079C357.914 108.079 359.146 111.381 360.467 111.381C361.787 111.381 360.72 107.936 360.72 107.936C360.72 107.936 363.625 107.661 364.319 106.715C364.319 106.715 356.747 109.092 355.933 103.865V103.854Z" fill="#E0E0E0"/>
<path d="M372.033 85.4203L380.342 97.5258L381.871 91.4511C382.807 86.7409 381.343 81.2605 377.866 75.1197C375.081 78.6083 372.891 82.0528 372.033 85.4203Z" fill="#F0F0F0"/>
<path d="M377.084 78.9824C375.665 79.9729 374.333 83.3184 373.012 86.84L378.185 94.4004L377.084 78.9824Z" fill="#E0E0E0"/>
<path d="M486.242 67.0861H419.662V155.28H486.242V67.0861Z" fill="#F5F5F5"/>
<path d="M483.414 69.8043H422.501V152.55H483.414V69.8043Z" fill="#EBEBEB"/>
<path d="M438.095 112.669C436.632 112.669 434.453 127.052 434.453 127.052C432.451 127.792 430.403 128.402 428.323 128.879C425.253 129.539 425.253 136.813 425.253 136.813H438.095C438.095 136.813 442.233 128.373 442.332 125.896C442.431 123.42 441.771 117.302 440.671 114.991C439.57 112.68 439.57 112.669 438.095 112.669Z" fill="#F5F5F5"/>
<path d="M440.759 103.303C440.759 103.303 436.731 114.881 437.997 123.255C439.262 131.63 446.801 136.813 446.801 136.813H475.017C475.017 136.813 480.828 133.083 480.74 129.649C480.652 126.216 481.631 123.475 477.328 120.053C473.025 116.63 461.789 116.531 461.789 116.531L455.186 105.064L440.759 103.303Z" fill="#FAFAFA"/>
<path d="M451.401 112.669C448.748 112.669 444.798 127.052 444.798 127.052C444.798 127.052 439.295 128.208 433.793 128.879C428.29 129.55 428.29 136.813 428.29 136.813H451.401C451.401 136.813 458.851 128.373 459.027 125.896C459.203 123.42 458.004 117.302 456.023 114.991C454.042 112.68 454.042 112.669 451.401 112.669Z" fill="#F0F0F0"/>
<path d="M477.614 121.605C476.151 121.605 473.972 131.355 473.972 131.355C473.972 131.355 470.923 132.136 467.853 132.587C464.783 133.039 464.771 137.969 464.771 137.969H477.614C477.614 137.969 481.752 132.246 481.851 130.563C481.95 128.879 481.29 124.741 480.189 123.167C479.089 121.594 479.078 121.605 477.614 121.605Z" fill="#F0F0F0"/>
<path d="M454.196 94.5544L469.713 88.1165L464.805 101.289L454.196 94.5544Z" fill="#FAFAFA"/>
<path d="M467.545 91.0879L461.954 99.4846L464.177 100.893L467.545 91.0879Z" fill="#E0E0E0"/>
<path d="M461.503 93.3219C466.235 96.8985 471.154 99.4296 466.29 106.242C466.29 106.242 471.914 109.95 468.733 112.768C465.553 115.585 458.014 118.149 452.226 116.278C446.437 114.407 440.23 106.88 440.715 100.871C441.199 94.8626 453.469 87.2251 461.503 93.3219Z" fill="#FAFAFA"/>
<path d="M467.897 109.686L464.177 107.738L465.19 111.447L467.897 109.686Z" fill="#E0E0E0"/>
<path d="M465.652 110.181C465.23 110.969 464.617 111.638 463.869 112.126C463.121 112.615 462.262 112.907 461.371 112.977C458.124 113.384 457.53 110.016 457.53 110.016C457.53 110.016 456.43 114.66 458.576 115.519C460.722 116.377 461.195 113.813 461.195 113.813C461.936 114.122 462.731 114.28 463.533 114.28C464.336 114.28 465.131 114.122 465.872 113.813C464.972 113.926 464.059 113.777 463.242 113.384C463.242 113.384 465.817 111.931 465.652 110.181Z" fill="#E0E0E0"/>
<path d="M459.609 102.578C460.005 102.117 460.139 101.583 459.908 101.385C459.677 101.187 459.17 101.4 458.774 101.862C458.378 102.323 458.244 102.858 458.475 103.055C458.706 103.253 459.213 103.04 459.609 102.578Z" fill="#E0E0E0"/>
<path d="M465.212 105.119C464.827 105.57 464.683 106.11 464.915 106.308C465.146 106.506 465.652 106.308 466.015 105.834C466.378 105.361 466.543 104.833 466.312 104.635C466.081 104.437 465.608 104.657 465.212 105.119Z" fill="#E0E0E0"/>
<path d="M445.018 94.5324L459.676 82.1188L458.818 95.0496L448.957 100.2L445.018 94.5324Z" fill="#FAFAFA"/>
<path d="M457.761 86.1907L450.63 99.3196L457.761 95.6109V86.1907Z" fill="#E0E0E0"/>
<path d="M275.123 410C392.967 410 488.498 404.423 488.498 397.542C488.498 390.662 392.967 385.085 275.123 385.085C157.28 385.085 61.7488 390.662 61.7488 397.542C61.7488 404.423 157.28 410 275.123 410Z" fill="#EBEBEB"/>
<path d="M332.349 211.768L306.906 211.383C306.169 213.931 305.606 216.527 305.222 219.152C303.956 220.803 302.295 222.993 301.062 223.169C302.284 222.993 304.044 223.323 304.606 222.223C303.417 224.567 302.229 226.107 302.405 228.738L304.209 226.537C302.941 229.43 302.495 232.617 302.922 235.748C303.551 235.046 303.9 234.137 303.901 233.195C304.394 235.753 305.471 238.164 307.049 240.238C307.214 239.655 307.368 239.038 307.522 238.411C308.504 240.005 309.819 241.367 311.376 242.406C312.934 243.445 314.697 244.136 316.546 244.431C312.32 249.262 301.392 240.502 295.637 246.632C294.096 248.271 292.94 250.582 293.898 252.993C294.855 255.403 335.717 253.796 340.537 246.786C337.059 237.817 332.349 211.768 332.349 211.768Z" fill="#E7D5A9"/>
<path opacity="0.2" d="M332.349 211.768L306.906 211.383C306.169 213.931 305.606 216.527 305.222 219.152C303.956 220.803 302.295 222.993 301.062 223.169C302.284 222.993 304.044 223.323 304.606 222.223C303.417 224.567 302.229 226.107 302.405 228.738L304.209 226.537C302.941 229.43 302.495 232.617 302.922 235.748C303.551 235.046 303.9 234.137 303.901 233.195C304.394 235.753 305.471 238.164 307.049 240.238C307.214 239.655 307.368 239.038 307.522 238.411C308.504 240.005 309.819 241.367 311.376 242.406C312.934 243.445 314.697 244.136 316.546 244.431C312.32 249.262 301.392 240.502 295.637 246.632C294.096 248.271 292.94 250.582 293.898 252.993C294.855 255.403 335.717 253.796 340.537 246.786C337.059 237.817 332.349 211.768 332.349 211.768Z" fill="black"/>
<path d="M269.896 186.226L269.313 196.944C270.084 203.748 272.338 210.299 275.916 216.137C278.117 225.645 275.574 236.925 272.24 242.549C271.525 243.737 267.2 245.509 266.055 245.949C264.911 246.39 264.239 250.351 265.516 252.871C266.792 255.392 276.609 252.53 280.439 252.739C284.268 252.949 279.272 253.631 283.828 252.53C284.514 252.337 285.099 251.884 285.458 251.269C285.817 250.653 285.923 249.921 285.754 249.229C284.224 243.847 287.284 232.138 288.505 219.009C292.588 207.267 290.893 199.035 290.893 199.035L269.896 186.226Z" fill="#E7D5A9"/>
<path opacity="0.2" d="M269.896 186.226L269.313 196.944C270.084 203.748 272.338 210.299 275.916 216.137C278.117 225.645 275.574 236.925 272.24 242.549C271.525 243.737 267.2 245.509 266.055 245.949C264.911 246.39 264.239 250.351 265.516 252.871C266.792 255.392 276.609 252.53 280.439 252.739C284.268 252.949 279.272 253.631 283.828 252.53C284.514 252.337 285.099 251.884 285.458 251.269C285.817 250.653 285.923 249.921 285.754 249.229C284.224 243.847 287.284 232.138 288.505 219.009C292.588 207.267 290.893 199.035 290.893 199.035L269.896 186.226Z" fill="black"/>
<path d="M438.359 252.585C439.988 251.947 440.968 251.485 440.968 251.485C440.968 251.485 430.029 244.233 420.664 242.252C411.298 240.271 390.433 243.792 383.654 235.352C380.757 231.847 378.141 228.119 375.829 224.204C374.597 222.003 371.725 219.89 370.173 217.909C367.972 215.081 366.728 215.158 364.67 212.835C364.67 212.835 362.943 212.23 364.802 225.964C366.662 239.699 371.196 248.513 381.046 253.103C386.35 255.579 402.098 259.794 412.718 259.419C417.285 259.254 424.35 257.648 429.567 255.997C429.093 255.557 427.3 255.392 426.441 253.367C427.415 254.033 428.517 254.488 429.677 254.702C430.837 254.916 432.029 254.885 433.176 254.61C432.654 254.527 432.168 254.292 431.777 253.937C431.386 253.581 431.108 253.119 430.975 252.607C432.14 253.117 433.398 253.378 434.67 253.374C435.941 253.37 437.198 253.101 438.359 252.585V252.585Z" fill="#E7D5A9"/>
<path opacity="0.1" d="M399.149 250.99C399.6 252.09 400.063 253.191 400.514 254.291C399.565 254.176 398.662 253.818 397.892 253.254C397.121 252.689 396.508 251.936 396.112 251.067C396.112 252.167 396.112 253.268 396.057 254.368L374.553 238.961C373.871 238.466 370.877 233.459 370.041 233.327C368.511 233.107 364.539 228.606 363.933 230.025C363.933 230.113 368.643 240.392 368.61 240.469C371.031 246.074 375.447 250.58 381.002 253.114C386.306 255.59 402.054 259.805 412.674 259.43C414.381 259.35 416.079 259.151 417.758 258.836C415.479 257.673 413.05 256.833 410.539 256.338C406.368 255.414 401.812 254.346 399.149 250.99Z" fill="black"/>
<path d="M276.774 129.418C276.774 129.418 260.927 146.366 261.917 174.406C262.908 202.447 310.933 222.3 310.933 222.3L318.725 238.972C320.119 241.945 322.334 244.457 325.108 246.212C327.883 247.967 331.102 248.891 334.385 248.877L367.521 248.767C375.896 220.869 347.36 174.263 333.174 159.396C318.989 144.528 316.546 119.272 316.546 119.272L276.774 129.418Z" fill="#E7D5A9"/>
<path opacity="0.1" d="M310.933 222.3L314.983 203.349L327.947 221.794L354.205 229.827L350.276 249.812L327.276 247.413C319.616 245.146 315.93 233.041 310.933 222.3Z" fill="black"/>
<path d="M314.983 94.8736C310.46 88.6998 311.682 89.2501 304.837 85.8055C301.593 83.9467 298.158 82.4449 294.591 81.3265C291.29 80.226 279.58 80.8313 279.239 84.3309C276.532 83.0323 267.134 78.2671 264.382 76.9686C259.98 81.5906 259.133 93.2999 268.784 98.1751L266.396 97.5148C264.614 97.3717 263.403 99.5507 263.744 101.3C264.085 103.05 265.373 104.426 266.473 105.823C268.691 108.646 270.33 111.88 271.295 115.338C272.26 118.796 272.533 122.41 272.097 125.974C271.679 129.275 269.973 137.925 271.91 140.654C274.364 144.121 280.34 138.64 284.455 137.584C291.279 135.845 298.113 133.743 304.088 130.023C316.117 122.507 324.447 107.782 314.983 94.8736Z" fill="#E7D5A9"/>
<path opacity="0.2" d="M282.034 107.716C279.602 108.069 277.203 107.045 274.947 106.055L263.689 101.08C263.621 100.496 263.699 99.9031 263.916 99.3558C264.133 98.8085 264.482 98.3235 264.933 97.944C265.335 97.6275 265.842 97.4743 266.352 97.5148C267.156 97.7349 267.959 97.944 268.751 98.1751C259.199 93.3219 259.947 81.5906 264.349 76.9686L266.748 78.069L264.878 81.6897C260.773 92.0673 276.983 100.497 286.128 102.599C286.777 105.042 284.455 107.364 282.034 107.716Z" fill="black"/>
<path d="M283.487 86.939C283.487 86.939 286.921 86.6309 288.197 87.2361C289.474 87.8414 290.398 90.2075 290.398 90.2075C290.398 90.2075 290.893 87.0711 288.659 85.9156C286.425 84.76 283.487 86.939 283.487 86.939Z" fill="#263238"/>
<path opacity="0.1" d="M274.595 126.161C275.916 124.4 278.051 123.024 280.23 123.376C279.883 123.343 279.549 123.233 279.25 123.054C278.951 122.875 278.696 122.632 278.504 122.342C278.311 122.052 278.185 121.723 278.135 121.378C278.085 121.034 278.113 120.683 278.216 120.35C278.465 119.808 278.909 119.38 279.46 119.151C280.011 118.923 280.628 118.911 281.187 119.117C279.779 118.017 280.142 115.277 281.748 114.209C283.542 113.021 285.919 113.34 287.999 113.857H287.911C281.747 111.452 275.412 109.506 268.961 108.035C268.576 107.947 268.19 107.837 267.805 107.738C271.332 113.136 272.84 119.606 272.064 126.007C271.877 127.525 271.415 130.144 271.162 132.797L271.558 132.059C272.382 130.002 273.399 128.027 274.595 126.161V126.161Z" fill="black"/>
<path d="M268.322 78.8504L264.118 76.8585C262.699 78.3442 262.115 80.3911 261.433 82.361C264.239 82.7571 266.66 81.1064 268.322 78.8504Z" fill="#263238"/>
<path d="M316.183 117.401C315.435 118.455 314.876 119.632 314.532 120.878C314.501 121.027 314.501 121.181 314.532 121.329C312.859 125.06 309.481 128.152 304.451 130.53C292.709 136.032 275.718 135.79 271.437 134.183C271.2 134.152 270.96 134.199 270.752 134.316C270.545 134.433 270.381 134.615 270.285 134.833C270.19 135.052 270.168 135.295 270.222 135.527C270.277 135.759 270.406 135.967 270.589 136.12H270.699C275.85 138.035 293.402 138.068 305.42 132.389C311.462 129.539 315.324 125.665 317.03 120.867C317.325 120.03 317.815 119.275 318.461 118.666L316.183 117.401Z" fill="#263238"/>
<path d="M306.41 133.006C306.201 131.817 305.376 130.276 306.234 129.429C304.418 131.234 303.34 132.808 300.864 133.457L302.361 131.124C300.059 133.168 297.243 134.545 294.217 135.108C294.672 134.308 295.41 133.707 296.286 133.424C293.774 133.737 291.223 133.462 288.835 132.62C294.338 128.978 303.241 125.005 309.899 126.348C309.173 127.778 306.124 131.355 306.41 133.006Z" fill="#E7D5A9"/>
<path d="M285.105 136.527C285.105 135.328 284.499 133.688 285.468 132.973C283.399 134.48 282.1 135.878 279.558 136.142L281.385 134.062C278.801 135.732 275.81 136.664 272.735 136.758C273.307 136.039 274.128 135.56 275.035 135.416C272.502 135.346 270.02 134.691 267.783 133.501C273.726 130.717 283.19 128.142 289.562 130.475C288.626 131.784 285.028 134.866 285.105 136.527Z" fill="#E7D5A9"/>
<path d="M326.021 115.211L327.397 116.388L326.296 108.035L328.2 108.333L326.098 102.929L328.629 104.239L325.845 100.937C325.416 99.2425 324.745 94.6535 319.825 92.1333C314.906 89.6132 306.95 87.9625 306.95 87.9625C306.95 87.9625 305.09 111.37 307.665 115.761C310.24 120.152 315.556 125.39 321.586 124.774C324.238 124.499 325.471 120.163 325.988 115.277L326.021 115.211Z" fill="#E7D5A9"/>
<path opacity="0.2" d="M310.9 93.3109C311.748 97.6248 309.8 109.51 311.308 113.593C312.815 117.676 318.208 122.947 318.208 122.947L321.63 124.708C316.436 125.258 311.88 121.759 307.709 115.695C305.64 109.752 305.783 98.9674 306.994 87.8964C307.038 87.8964 310.053 89.0079 310.9 93.3109Z" fill="black"/>
<path d="M279.129 105.207C276.66 104.676 274.324 103.65 272.262 102.192C270.996 100.607 269.665 97.9329 267.475 96.1832C267.64 96.2492 267.794 96.3042 267.948 96.3812C271.591 100.129 276.375 102.56 281.55 103.292C281.55 103.292 283.333 105.779 279.129 105.207Z" fill="#263238"/>
<path d="M272.262 102.192C271.084 101.444 269.786 100.53 268.366 99.4296L268.278 99.3526L267.827 99.0004L267.321 98.5932C266.099 97.6248 264.58 97.5918 262.82 97.4267C261.869 97.4279 260.922 97.3058 260.002 97.0635C259.546 96.9318 259.14 96.6664 258.836 96.3016C258.532 95.9367 258.344 95.4892 258.297 95.0166C258.344 94.5543 258.537 94.119 258.848 93.773C259.158 93.4271 259.57 93.1882 260.024 93.0908C260.938 92.9266 261.881 93.0377 262.732 93.4099C264.458 94.0589 266.062 94.9966 267.475 96.1831C267.639 96.3106 267.797 96.4465 267.948 96.5903C269.852 98.3291 271.095 100.728 272.262 102.192Z" fill="#E8483F"/>
<path d="M257.912 163.313C259.111 163.236 260.795 163.687 261.422 162.664C260.091 164.865 258.803 166.252 258.759 168.816L260.674 166.824C259.224 169.523 258.539 172.567 258.693 175.628C259.364 174.996 259.776 174.137 259.848 173.218C260.125 175.734 260.98 178.152 262.347 180.283C264.647 174.142 266.429 164.502 263.579 158.273C262.358 159.418 259.573 163.203 257.912 163.313Z" fill="#E7D5A9"/>
<path d="M263.667 145.991C264.768 146.333 266.242 147.334 267.189 146.586C265.186 148.181 263.491 149.062 262.567 151.45L265.054 150.228C262.761 152.283 261.072 154.923 260.168 157.866C261.012 157.499 261.69 156.833 262.072 155.995C261.466 158.454 261.444 161.02 262.006 163.489C266.264 158.504 271.239 150.074 270.677 143.295C269.17 143.857 265.219 146.465 263.667 145.991Z" fill="#E7D5A9"/>
<path d="M362.833 213.374L337.39 213C336.637 215.547 336.059 218.143 335.662 220.769C334.397 222.409 332.724 224.599 331.502 224.775C332.724 224.599 334.485 224.929 335.046 223.829C333.857 226.173 332.658 227.714 332.845 230.344L334.65 228.143C333.383 231.037 332.934 234.223 333.351 237.354C333.989 236.657 334.343 235.746 334.342 234.801C334.835 237.359 335.912 239.77 337.489 241.844C337.654 241.261 337.808 240.644 337.962 240.017C338.941 241.614 340.254 242.98 341.812 244.019C343.371 245.058 345.136 245.747 346.986 246.037C342.76 250.868 331.832 242.108 326.077 248.238C324.547 249.867 323.392 252.178 324.349 254.588C325.307 256.998 366.168 255.391 370.988 248.381C367.577 239.423 362.833 213.374 362.833 213.374Z" fill="#E7D5A9"/>
<path opacity="0.1" d="M300.556 217.127L299.576 192.124L293.832 188.57C287.537 184.168 280.703 179.546 277.181 175.804L271.217 164.579C265.065 168.122 262.149 173.383 262.413 180.327C268.928 195.657 281.847 207.839 300.556 217.127Z" fill="black"/>
<path d="M305.859 255.381C305.354 255.556 305.859 255.501 305.859 255.381V255.381Z" fill="#E7D5A9"/>
<path d="M314.741 201.39L293.832 188.57L293.777 189.604L293.579 189.263C292.478 190.484 290.343 194.644 288.714 194.996C289.892 194.743 291.62 194.93 292.082 193.819C291.091 196.185 290.035 197.759 290.365 200.301C290.893 199.553 291.466 198.804 291.961 198.1C290.927 201.001 290.706 204.129 291.323 207.146C291.889 206.42 292.167 205.511 292.104 204.593C292.75 207.037 293.956 209.297 295.625 211.196C295.691 210.877 295.758 210.535 295.824 210.194C296.904 213.088 298.241 215.88 299.818 218.536C302.019 228.033 299.477 239.313 296.143 244.948C295.438 246.147 291.102 247.908 289.958 248.359C288.813 248.811 288.142 252.761 289.419 255.271C290.695 257.78 300.512 254.929 304.352 255.138C305.651 255.215 305.926 255.337 305.915 255.425C306.179 255.337 306.696 255.182 307.731 254.929C308.419 254.738 309.005 254.286 309.364 253.67C309.724 253.053 309.829 252.321 309.657 251.628C308.127 246.246 311.186 234.548 312.408 221.408C316.436 209.633 314.741 201.39 314.741 201.39Z" fill="#E7D5A9"/>
<path d="M454.405 255.799H229.937V264.251H454.405V255.799Z" fill="#82DFDF"/>
<path opacity="0.6" d="M454.405 264.24H229.937V255.799H454.405V264.24Z" fill="white"/>
<path opacity="0.2" d="M454.405 255.799H229.937V260.025H454.405V255.799Z" fill="black"/>
<path d="M458.587 256.899H225.755C225.124 256.896 224.519 256.644 224.074 256.196C223.628 255.748 223.378 255.143 223.378 254.511C223.378 253.881 223.629 253.276 224.074 252.83C224.52 252.385 225.125 252.134 225.755 252.134H458.587C459.217 252.134 459.822 252.385 460.268 252.83C460.713 253.276 460.964 253.881 460.964 254.511V254.511C460.964 255.143 460.714 255.748 460.268 256.196C459.823 256.644 459.218 256.896 458.587 256.899Z" fill="#82DFDF"/>
<path opacity="0.6" d="M458.587 256.899H225.755C225.124 256.896 224.519 256.644 224.074 256.196C223.628 255.748 223.378 255.143 223.378 254.511C223.378 253.881 223.629 253.276 224.074 252.83C224.52 252.385 225.125 252.134 225.755 252.134H458.587C459.217 252.134 459.822 252.385 460.268 252.83C460.713 253.276 460.964 253.881 460.964 254.511V254.511C460.964 255.143 460.714 255.748 460.268 256.196C459.823 256.644 459.218 256.896 458.587 256.899Z" fill="white"/>
<path d="M241.25 264.24H229.937V398.533H241.25V264.24Z" fill="#82DFDF"/>
<path opacity="0.5" d="M241.25 264.141H229.937V398.533H241.25V264.141Z" fill="white"/>
<path opacity="0.2" d="M241.25 264.141H229.937V282.387H241.25V264.141Z" fill="black"/>
<path d="M454.405 264.24H443.092V398.533H454.405V264.24Z" fill="#82DFDF"/>
<path opacity="0.5" d="M454.405 264.141H443.092V398.533H454.405V264.141Z" fill="white"/>
<path opacity="0.2" d="M454.405 264.141H443.092V282.387H454.405V264.141Z" fill="black"/>
<path d="M310.515 264.24H299.202V398.533H310.515V264.24Z" fill="#82DFDF"/>
<path opacity="0.5" d="M310.515 264.141H299.202V398.533H310.515V264.141Z" fill="white"/>
<path opacity="0.2" d="M310.515 264.141H299.202V290.552H310.515V264.141Z" fill="black"/>
<path d="M385.316 264.24H374.003V398.533H385.316V264.24Z" fill="#82DFDF"/>
<path opacity="0.5" d="M385.316 264.141H374.003V398.533H385.316V264.141Z" fill="white"/>
<path opacity="0.2" d="M385.316 264.141H374.003V290.552H385.316V264.141Z" fill="black"/>
<path d="M236.342 151.45L253.334 141.545C256.043 141.748 258.766 141.622 261.444 141.171C265.846 140.412 266.793 140.368 266.265 136.901C265.736 133.435 266.474 128.813 265.164 128.329C263.855 127.844 254.588 131.751 252.993 134.403L235.836 140.533L236.342 151.45Z" fill="#E4897B"/>
<path d="M185.984 134.667V154.476C185.984 154.476 190.21 155.874 195.459 157.338C201.479 159.01 208.841 160.771 212.671 160.639C219.824 160.287 252.938 143.361 252.938 143.361L250.539 134.711C250.539 134.711 213.221 148.336 209.919 147.686C206.618 147.037 185.984 134.667 185.984 134.667Z" fill="#82DFDF"/>
<path opacity="0.2" d="M185.984 144.319V154.487C185.984 154.487 190.21 155.885 195.459 157.349C193.544 151.45 188.713 146.641 185.984 144.319Z" fill="black"/>
<path d="M181.581 205.176C181.581 205.176 193.511 268.741 196.691 294.844C200.851 328.894 221.287 388.199 221.287 388.199H214.761C214.761 388.199 187.084 338.138 182.418 300.05C163.379 261.125 161.839 213.188 161.839 213.188L181.581 205.176Z" fill="#E4897B"/>
<path d="M169.179 204.164C169.179 204.164 167.693 268.818 165.415 295.02C162.433 329.191 169.817 388.86 169.817 388.86H163.71C163.71 388.86 147.059 335.386 150.361 297.133C139.785 255.105 148.16 207.894 148.16 207.894L169.179 204.164Z" fill="#E4897B"/>
<path d="M165.9 141.964C156.942 140.863 154.256 136.989 154.256 136.989C159.935 131.63 155.214 122.342 155.214 122.342L165.988 124.356C165.746 125.86 165.606 127.378 165.569 128.901C165.492 135.438 168.442 135.504 168.442 135.504C170.335 139.036 165.9 141.964 165.9 141.964Z" fill="#E4897B"/>
<path d="M185.819 189.12L149.502 192.256C149.149 183.254 147.854 174.313 145.639 165.58C144.77 162.103 143.681 158.218 142.283 153.728C141.535 151.329 140.709 148.754 139.785 146.025C139.092 143.923 138.343 141.689 137.518 139.334C142.449 137.759 147.488 136.542 152.595 135.691C157.984 134.734 163.434 134.16 168.904 133.974C175.969 133.974 184.091 134.711 184.091 134.711C184.091 134.711 185.191 134.987 185.973 142.481C186.622 149.469 187.271 163.533 185.819 189.12Z" fill="#82DFDF"/>
<path d="M185.642 194.567L149.326 197.561C148.754 188.537 148.325 176.343 145.607 165.58C144.737 162.103 143.648 158.218 142.25 153.728C141.502 151.329 140.676 148.754 139.752 146.025C139.059 143.923 138.31 141.689 137.485 139.334C142.417 137.759 147.455 136.542 152.562 135.691C157.951 134.734 163.401 134.16 168.871 133.974C175.936 133.974 184.058 134.711 184.058 134.711C184.058 134.711 185.158 134.987 185.94 142.481C186.622 149.469 187.084 168.981 185.642 194.567Z" fill="#2E353A"/>
<path opacity="0.2" d="M165.988 124.356C165.746 125.86 165.606 127.378 165.57 128.901C158.295 128.901 155.214 122.298 155.214 122.298L165.988 124.356Z" fill="black"/>
<path d="M185.642 194.567L208.544 329.048C208.544 329.048 153.134 335.651 134.359 331.799C134.359 331.799 129.748 235.528 149.348 197.539L185.642 194.567Z" fill="#82DFDF"/>
<path opacity="0.4" d="M185.642 194.567L208.544 329.048C208.544 329.048 153.134 335.651 134.359 331.799C134.359 331.799 129.748 235.528 149.348 197.539L185.642 194.567Z" fill="white"/>
<path d="M137.562 139.29L150.768 135.845L164.975 196.273L161.024 346.116L126.359 339.865C129.22 284.841 133.809 233.25 145.067 194.6L137.562 139.29Z" fill="#82DFDF"/>
<path d="M185.984 134.667C192.653 153.376 191.706 173.691 188.185 194.567L222.85 326.627L198.089 342.804L181.747 194.567C181.428 173.493 181.978 152.22 169.839 133.842L185.984 134.667Z" fill="#82DFDF"/>
<path d="M212.296 385.998C212.296 385.195 222.124 385.998 222.124 385.998C222.124 385.998 228.022 392.26 233.844 393.757C239.666 395.253 236.331 398.709 229.783 398.566L213.595 398.225C208.94 398.159 211.933 394.263 212.296 385.998Z" fill="#263238"/>
<path d="M161.035 385.998C161.035 385.195 170.863 385.998 170.863 385.998C170.863 385.998 176.761 392.26 182.583 393.757C188.405 395.253 185.07 398.709 178.522 398.566L162.334 398.225C157.679 398.159 160.672 394.263 161.035 385.998Z" fill="#263238"/>
<path d="M155.214 134.667L164.931 137.364L168.387 133.237L155.214 134.667Z" fill="#E4897B"/>
<path d="M164.931 137.364L159.605 144.132L150.658 136.34L155.214 131.014L164.931 137.364Z" fill="#82DFDF"/>
<path d="M164.931 137.364L171.149 141.964L169.85 133.842L166.252 129.726L164.931 137.364Z" fill="#82DFDF"/>
<path opacity="0.2" d="M146.443 136.989L145.441 153.046L151.483 158.504L146.531 163.093L164.513 212.098L164.931 196.273L150.658 135.306L146.443 136.989Z" fill="black"/>
<path opacity="0.2" d="M169.839 133.842L173.141 133.985L184.784 148.226L181.747 153.178L186.006 156.479L186.479 237.443L181.747 194.523C181.317 165.745 179.161 146.905 169.839 133.842Z" fill="black"/>
<path opacity="0.2" d="M142.503 176.013L145.441 161.696L141.535 168.86L142.503 176.013Z" fill="black"/>
<path opacity="0.1" d="M142.184 205.176L150.658 228.11L148.93 229.629L149.865 231.709C149.865 231.709 156.765 244.673 155.214 246.566C153.662 248.458 143.185 245.102 143.185 245.102L139.081 218.998L142.184 205.176Z" fill="black"/>
<path d="M132.698 214.508L140.951 231.94C140.622 234.637 140.622 237.365 140.951 240.062C141.502 244.464 141.502 245.443 144.99 245.08C148.479 244.717 153.057 245.663 153.607 244.376C154.157 243.088 150.669 233.657 148.105 231.929L142.767 214.508H132.698Z" fill="#E4897B"/>
<path d="M134.447 184.762C136.76 181.433 138.749 177.892 140.39 174.186C143.361 167.748 145.441 161.696 145.441 161.696L143.24 155.489L137.485 139.29C137.485 139.29 133.688 144.583 127.932 164.447V164.348L126.832 168.265C125.996 171.171 125.071 174.318 124.213 177.785V177.884L123.575 180.25C123.475 180.437 123.376 180.624 123.255 180.811V181.416L121.219 188.922L137.727 228.099H148.369L134.447 184.762Z" fill="#82DFDF"/>
<path d="M143.152 99.1765C143.577 98.1962 144.273 97.3576 145.158 96.7591C146.043 96.1606 147.081 95.8272 148.149 95.798H153.651L149.491 106.671L149.744 120.295L147.895 116.146L147.389 120.295C147.389 120.295 142.987 110.853 142.679 108.068C142.371 105.284 141.799 102.555 143.152 99.1765Z" fill="#263238"/>
<path d="M160.034 93.2889C169.399 92.7826 172.69 97.6358 173.911 107.243C175.43 119.261 173.218 127.976 161.365 126.04C145.265 123.42 144.484 94.1472 160.034 93.2889Z" fill="#E4897B"/>
<path d="M167.825 107.056C168.65 108.414 169.636 109.667 170.764 110.787C170.511 111.189 170.152 111.513 169.727 111.725C169.302 111.936 168.827 112.027 168.353 111.986L167.825 107.056Z" fill="#A24E3F"/>
<path d="M162.048 106.605C162.103 107.375 161.74 108.024 161.233 108.068C160.727 108.112 160.254 107.518 160.188 106.748C160.122 105.978 160.496 105.328 161.013 105.284C161.531 105.24 161.993 105.834 162.048 106.605Z" fill="#2E353A"/>
<path d="M160.804 105.339L162.422 104.547C162.422 104.547 161.696 106.022 160.804 105.339Z" fill="#2E353A"/>
<path d="M171.589 105.647C171.644 106.418 171.281 107.078 170.775 107.111C170.268 107.144 169.795 106.561 169.674 105.79C169.553 105.02 169.982 104.371 170.5 104.327C171.017 104.283 171.523 104.921 171.589 105.647Z" fill="#2E353A"/>
<path d="M170.345 104.426L171.963 103.644C171.963 103.644 171.237 105.119 170.345 104.426Z" fill="#2E353A"/>
<path d="M161.597 100.145C160.851 100.095 160.104 100.217 159.414 100.501C158.723 100.785 158.107 101.224 157.613 101.785" stroke="#2E353A" stroke-width="0.72468" stroke-linecap="round" stroke-linejoin="round"/>
<path d="M168.376 99.3746C169.007 99.1789 169.674 99.1277 170.327 99.2249C170.98 99.3221 171.604 99.565 172.15 99.9358" stroke="#2E353A" stroke-width="0.72468" stroke-linecap="round" stroke-linejoin="round"/>
<path d="M167.187 115.739C166.802 116.815 166.497 117.919 166.274 119.04C166.065 119.04 165.867 119.04 165.668 119.04C162.928 118.919 161.696 117.94 161.156 116.927C160.907 116.418 160.786 115.855 160.804 115.288C160.802 114.968 160.843 114.65 160.925 114.341C162.583 115.17 164.4 115.632 166.252 115.695C166.824 115.739 167.187 115.739 167.187 115.739Z" fill="#2E353A"/>
<path d="M166.252 115.684L165.955 116.652C163.379 116.531 161.553 116.091 160.804 115.277C160.802 114.957 160.843 114.639 160.925 114.33C162.583 115.159 164.4 115.621 166.252 115.684V115.684Z" fill="white"/>
<path d="M165.669 119.029C162.928 118.908 161.696 117.929 161.156 116.916C162.201 116.982 163.225 117.232 164.183 117.654C164.807 117.949 165.326 118.429 165.669 119.029Z" fill="#DE5753"/>
<path d="M150.658 109.642C150.658 109.642 154.619 101.708 153.629 95.798C153.629 95.798 171.776 87.2031 173.724 105.989C173.724 105.989 174.626 89.162 158.504 89.6682C142.382 90.1745 143.735 113.736 152.44 120.295C152.44 120.295 148.214 114.605 150.658 109.642Z" fill="#263238"/>
<path d="M152.297 111.535C152.15 110.457 151.58 109.481 150.713 108.823C149.846 108.164 148.754 107.877 147.675 108.024C144.792 108.498 143.725 114.528 151.032 115.574C152.077 115.717 152.606 114.671 152.297 111.535Z" fill="#E4897B"/>
<path d="M148.149 95.798C148.149 95.798 146.619 90.8898 150.834 88.0945C155.049 85.2993 162.411 86.4768 167.187 88.0945C171.963 89.7122 176.827 103.689 176.827 103.689C174.456 100.182 171.616 97.0165 168.387 94.2793L155.181 94.1582L153.64 95.842L148.149 95.798Z" fill="#263238"/>
<path d="M141.292 101.245C132.863 96.9315 122.089 104.954 126.612 111.436C127.305 120.988 133.611 121.285 137.364 114.737C142.866 110.335 141.38 106.55 139.246 102.808C138.816 104.272 139.763 106.77 134.315 108.773L133.072 107.991C136.868 103.501 139.246 104.69 141.744 105.515L141.292 101.245Z" fill="#2E353A"/>
<path d="M122.155 117.588C123.729 107.793 127.129 101.3 133.545 100.266L136.065 99.9689C129.385 101.399 124.939 107.683 122.155 117.588Z" fill="#2E353A"/>
<path d="M126.073 116.861C124.807 107.1 128.549 101.576 136.968 100.002L132.643 100.453C125.919 103.006 124.18 108.773 126.073 116.861Z" fill="#2E353A"/>
<path d="M141.226 100.552L141.711 105.724C141.81 105.844 141.937 105.938 142.081 105.997C142.225 106.057 142.381 106.08 142.536 106.066C142.684 106.055 142.827 106.005 142.951 105.922C143.074 105.839 143.174 105.726 143.24 105.592L142.888 100.453C142.826 100.291 142.715 100.151 142.572 100.053C142.429 99.9548 142.259 99.9024 142.085 99.9028C141.898 99.9285 141.721 100.002 141.571 100.115C141.42 100.229 141.302 100.379 141.226 100.552Z" fill="#82DFDF"/>
<path d="M271.943 120.207C271.943 123.046 271.734 125.709 269.874 126.722C271.558 127.701 271.954 130.023 271.943 132.83H272.845V120.207H271.943Z" fill="#263238"/>
<path opacity="0.6" d="M271.943 120.207C271.943 123.046 271.734 125.709 269.874 126.722C271.558 127.701 271.954 130.023 271.943 132.83H272.845V120.207H271.943Z" fill="white"/>
<path d="M148.82 113.12C148.82 113.12 151.23 125.049 153.101 126.997C154.972 128.945 161.74 131.465 166.252 129.726C170.764 127.987 173.955 127.008 175.287 123.75C175.641 122.721 175.738 121.621 175.572 120.545C175.405 119.47 174.978 118.451 174.33 117.577V115.255C174.33 115.255 177.488 120.185 176.376 123.706C175.265 127.228 171.391 129.66 166.263 131.014C161.135 132.367 153.266 130.21 151.692 127.525C150.119 124.84 147.389 113.516 147.389 113.516L148.82 113.12Z" fill="#263238"/>
<path opacity="0.5" d="M148.82 113.12C148.82 113.12 151.23 125.049 153.101 126.997C154.972 128.945 161.74 131.465 166.252 129.726C170.764 127.987 173.955 127.008 175.287 123.75C175.641 122.721 175.738 121.621 175.572 120.545C175.405 119.47 174.978 118.451 174.33 117.577V115.255C174.33 115.255 177.488 120.185 176.376 123.706C175.265 127.228 171.391 129.66 166.263 131.014C161.135 132.367 153.266 130.21 151.692 127.525C150.119 124.84 147.389 113.516 147.389 113.516L148.82 113.12Z" fill="white"/>
<path d="M220.308 204.164C203.14 204.164 189.054 196.141 179.733 188.757C166.065 177.928 165.712 132.929 165.701 131.025H166.802C166.802 131.487 167.165 177.411 180.426 187.898C191.211 196.449 208.5 205.891 229.508 202.293C247.49 199.211 249.317 196.372 256.844 184.432L257.615 183.221C263.458 174.01 262.677 153.772 262.215 141.678C262.017 136.516 261.874 132.786 262.215 131.311C263.546 126.073 270.138 126.018 270.424 126.018V127.118C270.424 127.118 264.394 127.184 263.282 131.586C262.941 132.907 263.095 136.758 263.282 141.634C263.755 153.86 264.537 174.307 258.506 183.815L257.747 185.015C249.977 197.297 248.128 200.213 229.662 203.371C226.572 203.898 223.443 204.163 220.308 204.164V204.164Z" fill="#263238"/>
<g opacity="0.3">
<path opacity="0.3" d="M220.308 204.164C203.14 204.164 189.054 196.141 179.733 188.757C166.065 177.928 165.712 132.929 165.701 131.025H166.802C166.802 131.487 167.165 177.411 180.426 187.898C191.211 196.449 208.5 205.891 229.508 202.293C247.49 199.211 249.317 196.372 256.844 184.432L257.615 183.221C263.458 174.01 262.677 153.772 262.215 141.678C262.017 136.516 261.874 132.786 262.215 131.311C263.546 126.073 270.138 126.018 270.424 126.018V127.118C270.424 127.118 264.394 127.184 263.282 131.586C262.941 132.907 263.095 136.758 263.282 141.634C263.755 153.86 264.537 174.307 258.506 183.815L257.747 185.015C249.977 197.297 248.128 200.213 229.662 203.371C226.572 203.898 223.443 204.163 220.308 204.164V204.164Z" fill="white"/>
</g>
<path d="M391.281 295.714L392.304 285.996C392.359 285.452 392.615 284.947 393.022 284.58C393.429 284.214 393.958 284.013 394.505 284.015H418.276C418.823 284.013 419.352 284.214 419.759 284.58C420.166 284.947 420.422 285.452 420.477 285.996L421.5 295.714L425.781 295.262L424.758 285.545C424.591 283.943 423.836 282.459 422.639 281.382C421.441 280.304 419.887 279.709 418.276 279.713H394.505C392.893 279.709 391.337 280.304 390.138 281.381C388.938 282.458 388.181 283.942 388.012 285.545L386.989 295.262L391.281 295.714Z" fill="#82DFDF"/>
<g opacity="0.3">
<path opacity="0.3" d="M391.281 295.714L392.304 285.996C392.359 285.452 392.615 284.947 393.022 284.58C393.429 284.214 393.958 284.013 394.505 284.015H418.276C418.823 284.013 419.352 284.214 419.759 284.58C420.166 284.947 420.422 285.452 420.477 285.996L421.5 295.714L425.781 295.262L424.758 285.545C424.591 283.943 423.836 282.459 422.639 281.382C421.441 280.304 419.887 279.709 418.276 279.713H394.505C392.893 279.709 391.337 280.304 390.138 281.381C388.938 282.458 388.181 283.942 388.012 285.545L386.989 295.262L391.281 295.714Z" fill="black"/>
</g>
<path d="M301.535 341.582V347.305C301.535 348.358 301.954 349.369 302.699 350.114C303.444 350.859 304.455 351.278 305.508 351.278H306.135L317.779 390.422C318.405 392.528 319.695 394.374 321.456 395.687C323.217 397 325.355 397.708 327.551 397.707H485.219C487.414 397.71 489.552 397.001 491.311 395.688C493.071 394.375 494.358 392.528 494.98 390.422L506.612 351.278H507.251C507.772 351.278 508.289 351.175 508.771 350.975C509.253 350.776 509.691 350.483 510.06 350.114C510.429 349.745 510.721 349.307 510.921 348.825C511.121 348.343 511.224 347.827 511.224 347.305V341.582C511.224 340.528 510.805 339.516 510.061 338.769C509.316 338.022 508.305 337.601 507.251 337.598H506.612L494.98 298.454C494.356 296.349 493.069 294.503 491.309 293.19C489.55 291.877 487.414 291.168 485.219 291.169H327.595C325.399 291.169 323.262 291.879 321.501 293.191C319.741 294.504 318.45 296.35 317.823 298.454L306.18 337.598H305.552C305.026 337.593 304.504 337.691 304.016 337.889C303.528 338.087 303.084 338.38 302.711 338.75C302.337 339.121 302.041 339.562 301.839 340.048C301.637 340.534 301.534 341.056 301.535 341.582V341.582Z" fill="#82DFDF"/>
<path opacity="0.3" d="M306.179 351.278L317.823 390.422C318.449 392.528 319.739 394.374 321.5 395.687C323.261 397 325.399 397.708 327.595 397.707H485.219C487.414 397.71 489.552 397.001 491.311 395.688C493.07 394.375 494.358 392.528 494.98 390.422L506.612 351.278H306.179Z" fill="white"/>
<g opacity="0.4">
<path opacity="0.4" d="M422.238 326.627C422.372 326.63 422.506 326.611 422.634 326.572C422.815 326.52 422.983 326.433 423.13 326.315C423.277 326.198 423.4 326.053 423.491 325.889C423.582 325.724 423.639 325.543 423.66 325.356C423.681 325.17 423.665 324.98 423.613 324.8L417.01 301.689C416.958 301.509 416.871 301.34 416.754 301.193C416.637 301.046 416.492 300.924 416.327 300.833C416.163 300.742 415.982 300.684 415.795 300.663C415.608 300.642 415.419 300.658 415.238 300.71C415.058 300.762 414.889 300.849 414.742 300.966C414.595 301.083 414.473 301.228 414.382 301.393C414.291 301.557 414.233 301.738 414.212 301.925C414.191 302.112 414.207 302.301 414.259 302.482L420.862 325.592C420.95 325.889 421.131 326.151 421.378 326.337C421.626 326.523 421.928 326.625 422.238 326.627V326.627Z" fill="black"/>
</g>
<g opacity="0.4">
<path opacity="0.4" d="M413.786 326.627C413.92 326.63 414.054 326.611 414.182 326.572C414.547 326.466 414.856 326.221 415.042 325.89C415.227 325.558 415.274 325.166 415.172 324.8L408.569 301.689C408.441 301.351 408.191 301.073 407.867 300.91C407.544 300.748 407.171 300.713 406.823 300.813C406.475 300.913 406.178 301.14 405.989 301.449C405.801 301.758 405.736 302.127 405.807 302.482L412.41 325.592C412.496 325.89 412.677 326.153 412.925 326.339C413.173 326.526 413.475 326.627 413.786 326.627V326.627Z" fill="black"/>
</g>
<g opacity="0.4">
<path opacity="0.4" d="M405.433 326.627C405.567 326.629 405.701 326.611 405.829 326.572C406.01 326.52 406.179 326.433 406.326 326.315C406.473 326.198 406.595 326.053 406.686 325.889C406.777 325.724 406.835 325.543 406.856 325.356C406.877 325.17 406.861 324.98 406.809 324.8L400.206 301.689C400.154 301.509 400.067 301.34 399.949 301.193C399.832 301.046 399.687 300.923 399.523 300.832C399.358 300.741 399.177 300.684 398.99 300.663C398.804 300.642 398.614 300.658 398.434 300.71C398.068 300.815 397.759 301.06 397.574 301.392C397.388 301.724 397.341 302.115 397.443 302.482L404.046 325.592C404.134 325.891 404.317 326.154 404.567 326.34C404.817 326.527 405.121 326.627 405.433 326.627V326.627Z" fill="black"/>
</g>
<g opacity="0.4">
<path opacity="0.4" d="M397.025 326.627C397.16 326.63 397.293 326.611 397.422 326.572C397.602 326.52 397.771 326.433 397.918 326.315C398.065 326.198 398.188 326.053 398.279 325.889C398.37 325.724 398.427 325.543 398.448 325.356C398.469 325.17 398.453 324.98 398.401 324.8L391.798 301.689C391.67 301.351 391.42 301.073 391.096 300.91C390.773 300.748 390.4 300.713 390.052 300.813C389.704 300.913 389.406 301.14 389.218 301.449C389.03 301.758 388.965 302.127 389.036 302.482L395.639 325.592C395.724 325.893 395.906 326.158 396.156 326.345C396.407 326.532 396.713 326.631 397.025 326.627V326.627Z" fill="black"/>
</g>
<g opacity="0.4">
<path opacity="0.4" d="M388.617 326.627C388.752 326.63 388.885 326.611 389.014 326.572C389.195 326.521 389.365 326.435 389.513 326.318C389.662 326.201 389.785 326.056 389.878 325.892C389.97 325.727 390.028 325.546 390.05 325.358C390.072 325.171 390.056 324.981 390.004 324.8L383.401 301.689C383.273 301.351 383.023 301.073 382.699 300.91C382.376 300.748 382.003 300.713 381.655 300.813C381.307 300.913 381.009 301.14 380.821 301.449C380.633 301.758 380.568 302.127 380.639 302.482L387.242 325.592C387.329 325.89 387.511 326.151 387.758 326.337C388.006 326.524 388.307 326.625 388.617 326.627V326.627Z" fill="black"/>
</g>
<g opacity="0.4">
<path opacity="0.4" d="M380.221 326.627C380.355 326.63 380.489 326.611 380.617 326.572C380.798 326.52 380.966 326.433 381.113 326.315C381.26 326.198 381.383 326.053 381.474 325.889C381.565 325.724 381.623 325.543 381.644 325.356C381.665 325.17 381.649 324.98 381.596 324.8L374.993 301.689C374.941 301.509 374.854 301.34 374.737 301.193C374.62 301.046 374.475 300.924 374.31 300.833C374.146 300.742 373.965 300.684 373.778 300.663C373.591 300.642 373.402 300.658 373.222 300.71C373.041 300.762 372.872 300.849 372.725 300.966C372.578 301.083 372.456 301.228 372.365 301.393C372.274 301.557 372.216 301.738 372.195 301.925C372.174 302.112 372.19 302.301 372.242 302.482L378.845 325.592C378.93 325.891 379.11 326.155 379.358 326.342C379.607 326.528 379.91 326.629 380.221 326.627V326.627Z" fill="black"/>
</g>
<g opacity="0.4">
<path opacity="0.4" d="M422.238 362.25C422.371 362.252 422.504 362.27 422.634 362.305C422.815 362.356 422.983 362.444 423.13 362.561C423.277 362.678 423.4 362.823 423.491 362.987C423.582 363.152 423.639 363.333 423.66 363.52C423.681 363.707 423.665 363.896 423.613 364.076L417.01 387.187C416.958 387.367 416.871 387.536 416.754 387.683C416.637 387.83 416.492 387.952 416.327 388.043C416.163 388.134 415.982 388.192 415.795 388.213C415.608 388.234 415.419 388.218 415.238 388.166C415.058 388.114 414.889 388.027 414.742 387.91C414.595 387.793 414.473 387.648 414.382 387.483C414.291 387.319 414.233 387.138 414.212 386.951C414.191 386.764 414.207 386.575 414.259 386.394L420.862 363.284C420.95 362.987 421.131 362.725 421.378 362.539C421.626 362.353 421.928 362.251 422.238 362.25V362.25Z" fill="black"/>
</g>
<g opacity="0.4">
<path opacity="0.4" d="M413.786 362.25C413.92 362.252 414.053 362.27 414.182 362.305C414.547 362.41 414.856 362.655 415.042 362.987C415.227 363.318 415.274 363.71 415.172 364.076L408.569 387.187C408.53 387.382 408.451 387.567 408.337 387.731C408.223 387.894 408.076 388.032 407.906 388.135C407.735 388.239 407.546 388.306 407.348 388.333C407.151 388.359 406.95 388.345 406.758 388.29C406.567 388.235 406.389 388.141 406.235 388.013C406.082 387.886 405.957 387.729 405.867 387.55C405.778 387.372 405.726 387.178 405.716 386.979C405.706 386.78 405.737 386.581 405.807 386.394L412.41 363.284C412.496 362.986 412.677 362.723 412.925 362.537C413.173 362.35 413.475 362.249 413.786 362.25V362.25Z" fill="black"/>
</g>
<g opacity="0.4">
<path opacity="0.4" d="M405.433 362.25C405.567 362.252 405.7 362.271 405.829 362.305C406.01 362.356 406.179 362.444 406.326 362.561C406.473 362.678 406.595 362.823 406.686 362.987C406.777 363.152 406.835 363.333 406.856 363.52C406.877 363.707 406.861 363.896 406.809 364.076L400.206 387.187C400.167 387.382 400.087 387.567 399.973 387.731C399.859 387.894 399.712 388.032 399.542 388.135C399.372 388.239 399.182 388.306 398.984 388.333C398.787 388.359 398.586 388.345 398.394 388.29C398.203 388.235 398.025 388.141 397.872 388.013C397.718 387.886 397.593 387.729 397.503 387.55C397.414 387.372 397.363 387.178 397.352 386.979C397.342 386.78 397.373 386.581 397.443 386.394L404.046 363.284C404.134 362.985 404.317 362.722 404.567 362.536C404.817 362.349 405.121 362.249 405.433 362.25V362.25Z" fill="black"/>
</g>
<g opacity="0.4">
<path opacity="0.4" d="M397.025 362.25C397.159 362.252 397.292 362.27 397.421 362.305C397.602 362.357 397.771 362.444 397.918 362.561C398.065 362.678 398.187 362.823 398.278 362.987C398.369 363.152 398.427 363.333 398.448 363.52C398.469 363.707 398.453 363.896 398.401 364.076L391.798 387.187C391.759 387.382 391.68 387.567 391.565 387.731C391.451 387.894 391.304 388.032 391.134 388.135C390.964 388.239 390.774 388.306 390.577 388.333C390.379 388.359 390.178 388.345 389.987 388.29C389.795 388.235 389.617 388.141 389.464 388.013C389.31 387.886 389.185 387.729 389.096 387.55C389.006 387.372 388.955 387.178 388.945 386.979C388.934 386.78 388.965 386.581 389.036 386.394L395.639 363.284C395.723 362.983 395.905 362.718 396.156 362.531C396.407 362.344 396.712 362.245 397.025 362.25V362.25Z" fill="black"/>
</g>
<g opacity="0.4">
<path opacity="0.4" d="M388.618 362.25C388.751 362.252 388.884 362.27 389.014 362.305C389.195 362.355 389.365 362.442 389.514 362.558C389.662 362.675 389.786 362.82 389.878 362.984C389.97 363.149 390.028 363.33 390.05 363.518C390.072 363.705 390.056 363.895 390.004 364.076L383.401 387.187C383.362 387.382 383.283 387.567 383.169 387.731C383.054 387.894 382.908 388.032 382.737 388.135C382.567 388.239 382.377 388.306 382.18 388.333C381.982 388.359 381.782 388.345 381.59 388.29C381.399 388.235 381.22 388.141 381.067 388.013C380.914 387.886 380.788 387.729 380.699 387.55C380.61 387.372 380.558 387.178 380.548 386.979C380.537 386.78 380.569 386.581 380.639 386.394L387.242 363.284C387.329 362.987 387.511 362.725 387.758 362.539C388.006 362.353 388.307 362.251 388.618 362.25V362.25Z" fill="black"/>
</g>
<g opacity="0.4">
<path opacity="0.4" d="M380.221 362.25C380.355 362.252 380.488 362.27 380.617 362.305C380.798 362.356 380.966 362.444 381.113 362.561C381.26 362.678 381.383 362.823 381.474 362.987C381.565 363.152 381.623 363.333 381.644 363.52C381.665 363.707 381.649 363.896 381.596 364.076L374.993 387.187C374.941 387.367 374.854 387.536 374.737 387.683C374.62 387.83 374.475 387.952 374.31 388.043C374.146 388.134 373.965 388.192 373.778 388.213C373.591 388.234 373.402 388.218 373.222 388.166C373.041 388.114 372.872 388.027 372.725 387.91C372.578 387.793 372.456 387.648 372.365 387.483C372.274 387.319 372.216 387.138 372.195 386.951C372.174 386.764 372.19 386.575 372.242 386.394L378.845 363.284C378.93 362.985 379.11 362.721 379.358 362.535C379.607 362.348 379.91 362.248 380.221 362.25V362.25Z" fill="black"/>
</g>
<g opacity="0.4">
<path opacity="0.4" d="M473.741 326.627C473.875 326.63 474.009 326.611 474.137 326.572C474.319 326.521 474.489 326.435 474.637 326.318C474.785 326.201 474.909 326.056 475.001 325.892C475.093 325.727 475.151 325.546 475.173 325.358C475.195 325.171 475.179 324.981 475.127 324.8L468.524 301.689C468.472 301.509 468.385 301.34 468.268 301.193C468.151 301.046 468.006 300.923 467.842 300.832C467.677 300.741 467.496 300.684 467.309 300.663C467.122 300.642 466.933 300.658 466.753 300.71C466.387 300.815 466.078 301.06 465.893 301.392C465.707 301.724 465.66 302.115 465.762 302.482L472.365 325.592C472.453 325.89 472.634 326.151 472.882 326.337C473.129 326.523 473.431 326.625 473.741 326.627V326.627Z" fill="black"/>
</g>
<g opacity="0.4">
<path opacity="0.4" d="M465.344 326.627C465.478 326.63 465.612 326.611 465.74 326.572C465.921 326.52 466.089 326.433 466.236 326.315C466.384 326.198 466.506 326.053 466.597 325.889C466.688 325.724 466.746 325.543 466.767 325.356C466.788 325.17 466.772 324.98 466.719 324.8L460.116 301.689C460.064 301.509 459.977 301.34 459.86 301.193C459.743 301.046 459.598 300.924 459.433 300.833C459.269 300.742 459.088 300.684 458.901 300.663C458.714 300.642 458.525 300.658 458.345 300.71C458.164 300.762 457.995 300.849 457.848 300.966C457.701 301.083 457.579 301.228 457.488 301.393C457.397 301.557 457.339 301.738 457.318 301.925C457.297 302.112 457.313 302.301 457.365 302.482L463.968 325.592C464.053 325.891 464.233 326.155 464.481 326.342C464.73 326.528 465.033 326.629 465.344 326.627V326.627Z" fill="black"/>
</g>
<g opacity="0.4">
<path opacity="0.4" d="M456.936 326.627C457.07 326.63 457.204 326.611 457.332 326.572C457.698 326.466 458.007 326.221 458.192 325.89C458.378 325.558 458.425 325.166 458.323 324.8L451.72 301.689C451.592 301.351 451.341 301.073 451.018 300.91C450.694 300.748 450.322 300.713 449.974 300.813C449.626 300.913 449.328 301.14 449.14 301.449C448.952 301.758 448.886 302.127 448.957 302.482L455.56 325.592C455.646 325.89 455.827 326.153 456.075 326.339C456.323 326.526 456.626 326.627 456.936 326.627V326.627Z" fill="black"/>
</g>
<g opacity="0.4">
<path opacity="0.4" d="M448.539 326.627C448.674 326.63 448.807 326.611 448.936 326.572C449.116 326.52 449.285 326.433 449.432 326.315C449.579 326.198 449.702 326.053 449.793 325.889C449.884 325.724 449.941 325.543 449.962 325.356C449.983 325.17 449.967 324.98 449.915 324.8L443.312 301.689C443.26 301.509 443.173 301.34 443.056 301.193C442.939 301.046 442.794 300.924 442.629 300.833C442.464 300.742 442.284 300.684 442.097 300.663C441.91 300.642 441.721 300.658 441.54 300.71C441.36 300.762 441.191 300.849 441.044 300.966C440.897 301.083 440.775 301.228 440.684 301.393C440.593 301.557 440.535 301.738 440.514 301.925C440.493 302.112 440.509 302.301 440.561 302.482L447.164 325.592C447.251 325.889 447.432 326.151 447.68 326.337C447.928 326.523 448.229 326.625 448.539 326.627V326.627Z" fill="black"/>
</g>
<g opacity="0.4">
<path opacity="0.4" d="M440.132 326.627C440.266 326.63 440.4 326.611 440.528 326.572C440.893 326.466 441.202 326.221 441.388 325.89C441.573 325.558 441.62 325.166 441.518 324.8L434.915 301.689C434.787 301.351 434.537 301.073 434.213 300.91C433.89 300.748 433.517 300.713 433.169 300.813C432.821 300.913 432.524 301.14 432.335 301.449C432.147 301.758 432.082 302.127 432.153 302.482L438.756 325.592C438.84 325.891 439.021 326.155 439.269 326.342C439.518 326.528 439.821 326.629 440.132 326.627V326.627Z" fill="black"/>
</g>
<g opacity="0.4">
<path opacity="0.4" d="M431.735 326.627C431.869 326.629 432.003 326.611 432.131 326.572C432.312 326.52 432.48 326.433 432.628 326.315C432.775 326.198 432.897 326.053 432.988 325.889C433.079 325.724 433.137 325.543 433.158 325.356C433.179 325.17 433.163 324.98 433.111 324.8L426.508 301.689C426.38 301.351 426.129 301.073 425.806 300.91C425.482 300.748 425.109 300.713 424.761 300.813C424.414 300.913 424.116 301.14 423.928 301.449C423.739 301.758 423.674 302.127 423.745 302.482L430.348 325.592C430.436 325.891 430.619 326.154 430.869 326.34C431.119 326.527 431.423 326.627 431.735 326.627V326.627Z" fill="black"/>
</g>
<g opacity="0.4">
<path opacity="0.4" d="M473.741 362.25C473.874 362.252 474.007 362.27 474.137 362.305C474.318 362.355 474.488 362.442 474.637 362.558C474.785 362.675 474.909 362.82 475.001 362.984C475.093 363.149 475.151 363.33 475.173 363.518C475.195 363.705 475.179 363.895 475.127 364.076L468.524 387.187C468.485 387.382 468.406 387.567 468.292 387.731C468.177 387.894 468.031 388.032 467.86 388.135C467.69 388.239 467.5 388.306 467.303 388.333C467.105 388.359 466.905 388.345 466.713 388.29C466.522 388.235 466.343 388.141 466.19 388.013C466.037 387.886 465.911 387.729 465.822 387.55C465.733 387.372 465.681 387.178 465.671 386.979C465.661 386.78 465.692 386.581 465.762 386.394L472.365 363.284C472.453 362.987 472.634 362.725 472.881 362.539C473.129 362.353 473.431 362.251 473.741 362.25V362.25Z" fill="black"/>
</g>
<g opacity="0.4">
<path opacity="0.4" d="M465.344 362.25C465.478 362.252 465.611 362.27 465.74 362.305C465.921 362.356 466.089 362.444 466.236 362.561C466.384 362.678 466.506 362.823 466.597 362.987C466.688 363.152 466.746 363.333 466.767 363.52C466.788 363.707 466.772 363.896 466.719 364.076L460.116 387.187C460.011 387.552 459.766 387.86 459.433 388.043C459.101 388.227 458.71 388.271 458.345 388.166C457.98 388.061 457.672 387.815 457.488 387.483C457.304 387.151 457.26 386.759 457.365 386.394L463.968 363.284C464.053 362.985 464.233 362.721 464.481 362.535C464.73 362.348 465.033 362.248 465.344 362.25V362.25Z" fill="black"/>
</g>
<g opacity="0.4">
<path opacity="0.4" d="M491.646 326.627C491.78 326.63 491.914 326.611 492.042 326.572C492.223 326.52 492.391 326.433 492.538 326.315C492.686 326.198 492.808 326.053 492.899 325.889C492.99 325.724 493.048 325.543 493.069 325.356C493.09 325.17 493.074 324.98 493.021 324.8L486.418 301.689C486.366 301.509 486.279 301.34 486.162 301.193C486.045 301.046 485.9 300.924 485.735 300.833C485.571 300.742 485.39 300.684 485.203 300.663C485.016 300.642 484.827 300.658 484.647 300.71C484.466 300.762 484.297 300.849 484.15 300.966C484.003 301.083 483.881 301.228 483.79 301.393C483.699 301.557 483.641 301.738 483.62 301.925C483.599 302.112 483.615 302.301 483.667 302.482L490.27 325.592C490.358 325.889 490.539 326.151 490.787 326.337C491.034 326.523 491.336 326.625 491.646 326.627V326.627Z" fill="black"/>
</g>
<g opacity="0.4">
<path opacity="0.4" d="M483.238 326.627C483.372 326.63 483.506 326.611 483.634 326.572C483.999 326.466 484.308 326.221 484.494 325.89C484.679 325.558 484.726 325.166 484.624 324.8L478.021 301.689C477.894 301.351 477.643 301.073 477.319 300.91C476.996 300.748 476.623 300.713 476.275 300.813C475.927 300.913 475.63 301.14 475.442 301.449C475.253 301.758 475.188 302.127 475.259 302.482L481.862 325.592C481.948 325.89 482.129 326.153 482.377 326.339C482.625 326.526 482.927 326.627 483.238 326.627V326.627Z" fill="black"/>
</g>
<g opacity="0.4">
<path opacity="0.4" d="M491.646 362.25C491.78 362.252 491.913 362.27 492.042 362.305C492.223 362.356 492.391 362.444 492.538 362.561C492.686 362.678 492.808 362.823 492.899 362.987C492.99 363.152 493.048 363.333 493.069 363.52C493.09 363.707 493.074 363.896 493.021 364.076L486.418 387.187C486.366 387.367 486.279 387.536 486.162 387.683C486.045 387.83 485.9 387.952 485.735 388.043C485.571 388.134 485.39 388.192 485.203 388.213C485.016 388.234 484.827 388.218 484.647 388.166C484.466 388.114 484.297 388.027 484.15 387.91C484.003 387.793 483.881 387.648 483.79 387.483C483.699 387.319 483.641 387.138 483.62 386.951C483.599 386.764 483.615 386.575 483.667 386.394L490.27 363.284C490.358 362.987 490.539 362.725 490.787 362.539C491.034 362.353 491.336 362.251 491.646 362.25V362.25Z" fill="black"/>
</g>
<g opacity="0.4">
<path opacity="0.4" d="M483.238 362.25C483.372 362.252 483.505 362.27 483.634 362.305C483.999 362.41 484.308 362.655 484.494 362.987C484.679 363.318 484.726 363.71 484.624 364.076L478.022 387.187C477.982 387.382 477.903 387.567 477.789 387.731C477.675 387.894 477.528 388.032 477.358 388.135C477.188 388.239 476.998 388.306 476.8 388.333C476.603 388.359 476.402 388.345 476.21 388.29C476.019 388.235 475.841 388.141 475.687 388.013C475.534 387.886 475.409 387.729 475.319 387.55C475.23 387.372 475.179 387.178 475.168 386.979C475.158 386.78 475.189 386.581 475.259 386.394L481.862 363.284C481.948 362.986 482.129 362.723 482.377 362.537C482.625 362.35 482.927 362.249 483.238 362.25V362.25Z" fill="black"/>
</g>
<g opacity="0.4">
<path opacity="0.4" d="M456.936 362.25C457.07 362.252 457.203 362.27 457.332 362.305C457.698 362.41 458.007 362.655 458.192 362.987C458.378 363.318 458.425 363.71 458.323 364.076L451.72 387.187C451.681 387.382 451.601 387.567 451.487 387.731C451.373 387.894 451.226 388.032 451.056 388.135C450.886 388.239 450.696 388.306 450.498 388.333C450.301 388.359 450.1 388.345 449.909 388.29C449.717 388.235 449.539 388.141 449.386 388.013C449.232 387.886 449.107 387.729 449.018 387.55C448.928 387.372 448.877 387.178 448.866 386.979C448.856 386.78 448.887 386.581 448.958 386.394L455.56 363.284C455.646 362.986 455.827 362.723 456.075 362.537C456.323 362.35 456.626 362.249 456.936 362.25V362.25Z" fill="black"/>
</g>
<g opacity="0.4">
<path opacity="0.4" d="M448.539 362.25C448.673 362.252 448.806 362.27 448.936 362.305C449.116 362.356 449.285 362.444 449.432 362.561C449.579 362.678 449.702 362.823 449.793 362.987C449.884 363.152 449.941 363.333 449.962 363.52C449.983 363.707 449.967 363.896 449.915 364.076L443.312 387.187C443.26 387.367 443.173 387.536 443.056 387.683C442.939 387.83 442.794 387.952 442.629 388.043C442.464 388.134 442.284 388.192 442.097 388.213C441.91 388.234 441.721 388.218 441.54 388.166C441.36 388.114 441.191 388.027 441.044 387.91C440.897 387.793 440.775 387.648 440.684 387.483C440.593 387.319 440.535 387.138 440.514 386.951C440.493 386.764 440.509 386.575 440.561 386.394L447.164 363.284C447.251 362.987 447.432 362.725 447.68 362.539C447.928 362.353 448.229 362.251 448.539 362.25V362.25Z" fill="black"/>
</g>
<g opacity="0.4">
<path opacity="0.4" d="M440.132 362.25C440.265 362.252 440.399 362.27 440.528 362.305C440.893 362.41 441.202 362.655 441.388 362.987C441.573 363.318 441.62 363.71 441.518 364.076L434.915 387.187C434.876 387.382 434.797 387.567 434.683 387.731C434.569 387.894 434.422 388.032 434.252 388.135C434.081 388.239 433.892 388.306 433.694 388.333C433.497 388.359 433.296 388.345 433.104 388.29C432.913 388.235 432.735 388.141 432.581 388.013C432.428 387.886 432.303 387.729 432.213 387.55C432.124 387.372 432.072 387.178 432.062 386.979C432.052 386.78 432.083 386.581 432.153 386.394L438.756 363.284C438.84 362.985 439.021 362.721 439.269 362.535C439.518 362.348 439.821 362.248 440.132 362.25V362.25Z" fill="black"/>
</g>
<g opacity="0.4">
<path opacity="0.4" d="M431.735 362.25C431.868 362.252 432.001 362.271 432.131 362.305C432.312 362.356 432.48 362.444 432.627 362.561C432.774 362.678 432.897 362.823 432.988 362.987C433.079 363.152 433.136 363.333 433.157 363.52C433.179 363.707 433.162 363.896 433.11 364.076L426.507 387.187C426.468 387.382 426.389 387.567 426.275 387.731C426.161 387.894 426.014 388.032 425.844 388.135C425.673 388.239 425.484 388.306 425.286 388.333C425.089 388.359 424.888 388.345 424.696 388.29C424.505 388.235 424.327 388.141 424.173 388.013C424.02 387.886 423.895 387.729 423.805 387.55C423.716 387.372 423.664 387.178 423.654 386.979C423.644 386.78 423.675 386.581 423.745 386.394L430.348 363.284C430.436 362.985 430.619 362.722 430.869 362.536C431.119 362.349 431.423 362.249 431.735 362.25V362.25Z" fill="black"/>
</g>
<path d="M305.552 337.598H313.146L321.476 307.973C321.862 306.603 322.685 305.396 323.819 304.536C324.953 303.676 326.337 303.21 327.76 303.208H353.181C354.605 303.208 355.99 303.674 357.125 304.534C358.259 305.394 359.081 306.602 359.465 307.973L367.807 337.598H507.251C508.305 337.601 509.316 338.022 510.061 338.769C510.805 339.516 511.223 340.528 511.223 341.582V347.305C511.223 347.827 511.121 348.343 510.921 348.825C510.721 349.307 510.429 349.745 510.06 350.114C509.691 350.483 509.253 350.776 508.771 350.975C508.289 351.175 507.772 351.278 507.251 351.278H367.807L359.465 380.914C359.079 382.283 358.256 383.488 357.122 384.346C355.988 385.205 354.604 385.669 353.181 385.668H327.76C326.338 385.667 324.955 385.202 323.821 384.344C322.687 383.486 321.864 382.282 321.476 380.914L313.124 351.278H305.552C304.498 351.278 303.488 350.859 302.743 350.114C301.998 349.369 301.579 348.358 301.579 347.305V341.582C301.578 341.06 301.68 340.542 301.879 340.059C302.078 339.575 302.37 339.136 302.739 338.766C303.108 338.396 303.547 338.102 304.029 337.902C304.512 337.702 305.029 337.598 305.552 337.598V337.598Z" fill="#82DFDF"/>
<path opacity="0.2" d="M301.535 341.582V347.305C301.535 348.358 301.954 349.369 302.699 350.114C303.444 350.859 304.455 351.278 305.508 351.278H306.135L317.779 390.422C318.405 392.528 319.695 394.374 321.456 395.687C323.217 397 325.355 397.709 327.551 397.707H353.369C355.562 397.707 357.697 396.998 359.454 395.685C361.211 394.372 362.497 392.526 363.119 390.422L374.762 351.278H375.39C376.443 351.278 377.454 350.859 378.199 350.114C378.944 349.369 379.362 348.358 379.362 347.305V341.582C379.364 341.06 379.262 340.542 379.063 340.059C378.864 339.575 378.572 339.136 378.203 338.766C377.834 338.396 377.395 338.102 376.912 337.902C376.43 337.702 375.912 337.598 375.39 337.598H374.762L363.163 298.454C362.54 296.351 361.254 294.506 359.497 293.194C357.74 291.881 355.606 291.171 353.413 291.169H327.595C325.399 291.169 323.262 291.879 321.501 293.191C319.741 294.504 318.45 296.35 317.823 298.454L306.18 337.598H305.552C305.026 337.593 304.504 337.691 304.016 337.889C303.528 338.087 303.084 338.38 302.711 338.75C302.337 339.121 302.041 339.562 301.839 340.048C301.637 340.534 301.534 341.056 301.535 341.582V341.582Z" fill="black"/>
<path opacity="0.4" d="M305.552 337.598H313.146L321.476 307.973C321.862 306.603 322.685 305.396 323.819 304.536C324.953 303.676 326.337 303.21 327.76 303.208H353.181C354.605 303.208 355.99 303.674 357.125 304.534C358.259 305.394 359.081 306.602 359.465 307.973L367.807 337.598H507.251C508.305 337.601 509.316 338.022 510.061 338.769C510.805 339.516 511.223 340.528 511.223 341.582V347.305C511.223 347.827 511.121 348.343 510.921 348.825C510.721 349.307 510.429 349.745 510.06 350.114C509.691 350.483 509.253 350.776 508.771 350.975C508.289 351.175 507.772 351.278 507.251 351.278H367.807L359.465 380.914C359.079 382.283 358.256 383.488 357.122 384.346C355.988 385.205 354.604 385.669 353.181 385.668H327.76C326.338 385.667 324.955 385.202 323.821 384.344C322.687 383.486 321.864 382.282 321.476 380.914L313.124 351.278H305.552C304.498 351.278 303.488 350.859 302.743 350.114C301.998 349.369 301.579 348.358 301.579 347.305V341.582C301.578 341.06 301.68 340.542 301.879 340.059C302.078 339.575 302.37 339.136 302.739 338.766C303.108 338.396 303.547 338.102 304.029 337.902C304.512 337.702 305.029 337.598 305.552 337.598V337.598Z" fill="white"/>
<g opacity="0.4">
<path opacity="0.4" d="M325.416 342.969C325.416 343.761 325.702 344.4 326.043 344.4H354.359C354.711 344.4 354.997 343.761 354.997 342.969C354.997 342.177 354.711 341.527 354.359 341.527H326.043C325.746 341.527 325.416 342.177 325.416 342.969Z" fill="black"/>
</g>
<g opacity="0.4">
<path opacity="0.4" d="M325.416 336.201C325.416 336.993 325.702 337.631 326.043 337.631H354.359C354.711 337.631 354.997 336.993 354.997 336.201C354.997 335.409 354.711 334.77 354.359 334.77H326.043C325.746 334.77 325.416 335.409 325.416 336.201Z" fill="black"/>
</g>
<g opacity="0.4">
<path opacity="0.4" d="M325.416 329.433C325.416 330.225 325.702 330.874 326.043 330.874H354.359C354.711 330.874 354.997 330.225 354.997 329.433C354.997 328.64 354.711 328.002 354.359 328.002H326.043C325.746 328.002 325.416 328.64 325.416 329.433Z" fill="black"/>
</g>
<g opacity="0.4">
<path opacity="0.4" d="M325.416 322.665C325.416 323.457 325.702 324.106 326.043 324.106H354.359C354.711 324.106 354.997 323.457 354.997 322.665C354.997 321.872 354.711 321.234 354.359 321.234H326.043C325.746 321.234 325.416 321.872 325.416 322.665Z" fill="black"/>
</g>
<g opacity="0.4">
<path opacity="0.4" d="M325.416 315.908C325.416 316.7 325.702 317.338 326.043 317.338H354.359C354.711 317.338 354.997 316.7 354.997 315.908C354.997 315.115 354.711 314.466 354.359 314.466H326.043C325.746 314.466 325.416 315.115 325.416 315.908Z" fill="black"/>
</g>
<g opacity="0.4">
<path opacity="0.4" d="M325.416 377.216C325.416 378.009 325.702 378.658 326.043 378.658H354.359C354.711 378.658 354.997 378.009 354.997 377.216C354.997 376.424 354.711 375.786 354.359 375.786H326.043C325.746 375.786 325.416 376.424 325.416 377.216Z" fill="black"/>
</g>
<g opacity="0.4">
<path opacity="0.4" d="M325.416 370.448C325.416 371.241 325.702 371.89 326.043 371.89H354.359C354.711 371.89 354.997 371.241 354.997 370.448C354.997 369.656 354.711 369.018 354.359 369.018H326.043C325.746 369.018 325.416 369.656 325.416 370.448Z" fill="black"/>
</g>
<g opacity="0.4">
<path opacity="0.4" d="M325.416 363.691C325.416 364.484 325.702 365.122 326.043 365.122H354.359C354.711 365.122 354.997 364.484 354.997 363.691C354.997 362.899 354.711 362.25 354.359 362.25H326.043C325.746 362.25 325.416 362.899 325.416 363.691Z" fill="black"/>
</g>
<g opacity="0.4">
<path opacity="0.4" d="M325.416 356.923C325.416 357.715 325.702 358.354 326.043 358.354H354.359C354.711 358.354 354.997 357.715 354.997 356.923C354.997 356.131 354.656 355.459 354.359 355.459H326.043C325.746 355.459 325.416 356.131 325.416 356.923Z" fill="black"/>
</g>
<g opacity="0.4">
<path opacity="0.4" d="M325.416 350.155C325.416 350.947 325.702 351.597 326.043 351.597H354.359C354.711 351.597 354.997 350.947 354.997 350.155C354.997 349.363 354.711 348.724 354.359 348.724H326.043C325.746 348.724 325.416 349.363 325.416 350.155Z" fill="black"/>
</g>
</svg>
